solid CATIA STL
  facet normal  0.000000e+000  -0.000000e+000 -1.000000e+000
    outer loop
      vertex  0.000000e+000 -4.700000e+001 -3.650000e+001
      vertex  4.000000e+001 -1.500000e+001 -3.650000e+001
      vertex  4.000000e+001 -4.700000e+001 -3.650000e+001
    endloop
  endfacet
  facet normal  0.000000e+000  0.000000e+000 -1.000000e+000
    outer loop
      vertex  4.000000e+001 -1.500000e+001 -3.650000e+001
      vertex  0.000000e+000 -4.700000e+001 -3.650000e+001
      vertex  3.700000e+001 -1.500000e+001 -3.650000e+001
    endloop
  endfacet
  facet normal  -0.000000e+000  0.000000e+000 -1.000000e+000
    outer loop
      vertex  3.700000e+001 -1.500000e+001 -3.650000e+001
      vertex  0.000000e+000 -4.700000e+001 -3.650000e+001
      vertex  0.000000e+000  4.300000e+001 -3.650000e+001
    endloop
  endfacet
  facet normal  0.000000e+000  0.000000e+000 -1.000000e+000
    outer loop
      vertex  3.700000e+001 -1.500000e+001 -3.650000e+001
      vertex  0.000000e+000  4.300000e+001 -3.650000e+001
      vertex  3.700000e+001  1.500000e+001 -3.650000e+001
    endloop
  endfacet
  facet normal  0.000000e+000  0.000000e+000 -1.000000e+000
    outer loop
      vertex  3.700000e+001  1.500000e+001 -3.650000e+001
      vertex  0.000000e+000  4.300000e+001 -3.650000e+001
      vertex  4.000000e+001  4.300000e+001 -3.650000e+001
    endloop
  endfacet
  facet normal  0.000000e+000  -0.000000e+000 -1.000000e+000
    outer loop
      vertex  3.700000e+001  1.500000e+001 -3.650000e+001
      vertex  4.000000e+001  4.300000e+001 -3.650000e+001
      vertex  4.000000e+001  1.500000e+001 -3.650000e+001
    endloop
  endfacet
  facet normal  1.000000e+000  -0.000000e+000  0.000000e+000
    outer loop
      vertex  4.000000e+001 -1.500000e+001 -3.450000e+001
      vertex  4.000000e+001 -4.500000e+001 -3.450000e+001
      vertex  4.000000e+001 -1.500000e+001 -3.650000e+001
    endloop
  endfacet
  facet normal  1.000000e+000  0.000000e+000  0.000000e+000
    outer loop
      vertex  4.000000e+001 -1.500000e+001 -3.650000e+001
      vertex  4.000000e+001 -4.500000e+001 -3.450000e+001
      vertex  4.000000e+001 -4.558578e+001 -3.591422e+001
    endloop
  endfacet
  facet normal  1.000000e+000  0.000000e+000  0.000000e+000
    outer loop
      vertex  4.000000e+001 -1.500000e+001 -3.650000e+001
      vertex  4.000000e+001 -4.558578e+001 -3.591422e+001
      vertex  4.000000e+001 -4.700000e+001 -3.650000e+001
    endloop
  endfacet
  facet normal  1.000000e+000  -0.000000e+000  0.000000e+000
    outer loop
      vertex  4.000000e+001  4.100000e+001 -3.450000e+001
      vertex  4.000000e+001  1.500000e+001 -3.450000e+001
      vertex  4.000000e+001  4.158578e+001 -3.591422e+001
    endloop
  endfacet
  facet normal  9.999999e-001  0.000000e+000  0.000000e+000
    outer loop
      vertex  4.000000e+001  4.158578e+001 -3.591422e+001
      vertex  4.000000e+001  1.500000e+001 -3.450000e+001
      vertex  4.000000e+001  1.500000e+001 -3.650000e+001
    endloop
  endfacet
  facet normal  1.000000e+000  0.000000e+000  0.000000e+000
    outer loop
      vertex  4.000000e+001  4.158578e+001 -3.591422e+001
      vertex  4.000000e+001  1.500000e+001 -3.650000e+001
      vertex  4.000000e+001  4.300000e+001 -3.650000e+001
    endloop
  endfacet
  facet normal  0.000000e+000  -0.000000e+000  1.000000e+000
    outer loop
      vertex  3.700000e+001 -1.500000e+001 -3.450000e+001
      vertex  4.000000e+001 -4.500000e+001 -3.450000e+001
      vertex  4.000000e+001 -1.500000e+001 -3.450000e+001
    endloop
  endfacet
  facet normal  0.000000e+000  -0.000000e+000  1.000000e+000
    outer loop
      vertex  3.000000e+000  4.300000e+001 -3.450000e+001
      vertex  4.000000e+001  4.100000e+001 -3.450000e+001
      vertex  4.000000e+001  4.300000e+001 -3.450000e+001
    endloop
  endfacet
  facet normal  0.000000e+000  0.000000e+000  1.000000e+000
    outer loop
      vertex  4.000000e+001 -4.700000e+001 -3.450000e+001
      vertex  4.000000e+001 -4.500000e+001 -3.450000e+001
      vertex  3.000000e+000 -4.700000e+001 -3.450000e+001
    endloop
  endfacet
  facet normal  0.000000e+000  0.000000e+000  1.000000e+000
    outer loop
      vertex  3.000000e+000 -4.700000e+001 -3.450000e+001
      vertex  4.000000e+001 -4.500000e+001 -3.450000e+001
      vertex  3.700000e+001 -1.500000e+001 -3.450000e+001
    endloop
  endfacet
  facet normal  0.000000e+000  0.000000e+000  1.000000e+000
    outer loop
      vertex  3.000000e+000 -4.700000e+001 -3.450000e+001
      vertex  3.700000e+001 -1.500000e+001 -3.450000e+001
      vertex  3.000000e+000  4.300000e+001 -3.450000e+001
    endloop
  endfacet
  facet normal  0.000000e+000  0.000000e+000  1.000000e+000
    outer loop
      vertex  3.000000e+000  4.300000e+001 -3.450000e+001
      vertex  3.700000e+001 -1.500000e+001 -3.450000e+001
      vertex  3.700000e+001  1.500000e+001 -3.450000e+001
    endloop
  endfacet
  facet normal  0.000000e+000  -0.000000e+000  9.999999e-001
    outer loop
      vertex  3.000000e+000  4.300000e+001 -3.450000e+001
      vertex  3.700000e+001  1.500000e+001 -3.450000e+001
      vertex  4.000000e+001  4.100000e+001 -3.450000e+001
    endloop
  endfacet
  facet normal  0.000000e+000  0.000000e+000  1.000000e+000
    outer loop
      vertex  4.000000e+001  4.100000e+001 -3.450000e+001
      vertex  3.700000e+001  1.500000e+001 -3.450000e+001
      vertex  4.000000e+001  1.500000e+001 -3.450000e+001
    endloop
  endfacet
  facet normal  0.000000e+000 -1.000000e+000  0.000000e+000
    outer loop
      vertex  3.700000e+001  1.500000e+001 -3.450000e+001
      vertex  3.700000e+001  1.500000e+001 -3.650000e+001
      vertex  4.000000e+001  1.500000e+001 -3.450000e+001
    endloop
  endfacet
  facet normal  0.000000e+000 -1.000000e+000  -0.000000e+000
    outer loop
      vertex  4.000000e+001  1.500000e+001 -3.450000e+001
      vertex  3.700000e+001  1.500000e+001 -3.650000e+001
      vertex  4.000000e+001  1.500000e+001 -3.650000e+001
    endloop
  endfacet
  facet normal  1.000000e+000  0.000000e+000  0.000000e+000
    outer loop
      vertex  3.700000e+001 -1.500000e+001 -3.650000e+001
      vertex  3.700000e+001  1.500000e+001 -3.650000e+001
      vertex  3.700000e+001 -1.500000e+001 -3.450000e+001
    endloop
  endfacet
  facet normal  1.000000e+000  -0.000000e+000  0.000000e+000
    outer loop
      vertex  3.700000e+001 -1.500000e+001 -3.450000e+001
      vertex  3.700000e+001  1.500000e+001 -3.650000e+001
      vertex  3.700000e+001  1.500000e+001 -3.450000e+001
    endloop
  endfacet
  facet normal  0.000000e+000  1.000000e+000  -0.000000e+000
    outer loop
      vertex  4.000000e+001 -1.500000e+001 -3.450000e+001
      vertex  4.000000e+001 -1.500000e+001 -3.650000e+001
      vertex  3.700000e+001 -1.500000e+001 -3.450000e+001
    endloop
  endfacet
  facet normal  0.000000e+000  1.000000e+000  0.000000e+000
    outer loop
      vertex  3.700000e+001 -1.500000e+001 -3.450000e+001
      vertex  4.000000e+001 -1.500000e+001 -3.650000e+001
      vertex  3.700000e+001 -1.500000e+001 -3.650000e+001
    endloop
  endfacet
  facet normal  0.000000e+000  1.000000e+000  -0.000000e+000
    outer loop
      vertex  4.000000e+001 -4.700000e+001 -3.250000e+001
      vertex  4.000000e+001 -4.700000e+001 -3.450000e+001
      vertex  3.000000e+000 -4.700000e+001 -3.450000e+001
    endloop
  endfacet
  facet normal  0.000000e+000  1.000000e+000  0.000000e+000
    outer loop
      vertex  5.000000e+000 -4.700000e+001  3.250000e+001
      vertex  4.000000e+001 -4.700000e+001  3.250000e+001
      vertex  5.000000e+000 -4.700000e+001  3.050000e+001
    endloop
  endfacet
  facet normal  0.000000e+000  1.000000e+000  0.000000e+000
    outer loop
      vertex  5.000000e+000 -4.700000e+001  3.050000e+001
      vertex  4.000000e+001 -4.700000e+001  3.250000e+001
      vertex  4.000000e+001 -4.700000e+001  3.050000e+001
    endloop
  endfacet
  facet normal  0.000000e+000  1.000000e+000  0.000000e+000
    outer loop
      vertex  5.000000e+000 -4.700000e+001  3.050000e+001
      vertex  4.000000e+001 -4.700000e+001  3.050000e+001
      vertex  4.000000e+001 -4.700000e+001  2.850000e+001
    endloop
  endfacet
  facet normal  0.000000e+000  1.000000e+000  0.000000e+000
    outer loop
      vertex  3.000000e+000 -4.700000e+001  3.050000e+001
      vertex  5.000000e+000 -4.700000e+001  3.050000e+001
      vertex  3.000000e+000 -4.700000e+001 -3.450000e+001
    endloop
  endfacet
  facet normal  0.000000e+000  1.000000e+000  0.000000e+000
    outer loop
      vertex  3.000000e+000 -4.700000e+001 -3.450000e+001
      vertex  5.000000e+000 -4.700000e+001  3.050000e+001
      vertex  4.000000e+001 -4.700000e+001  2.850000e+001
    endloop
  endfacet
  facet normal  0.000000e+000  1.000000e+000  0.000000e+000
    outer loop
      vertex  3.000000e+000 -4.700000e+001 -3.450000e+001
      vertex  4.000000e+001 -4.700000e+001  2.850000e+001
      vertex  4.000000e+001 -4.700000e+001 -3.250000e+001
    endloop
  endfacet
  facet normal -1.000000e+000  0.000000e+000  0.000000e+000
    outer loop
      vertex  4.000000e+001 -4.558578e+001  3.191421e+001
      vertex  4.000000e+001 -4.500000e+001  3.050000e+001
      vertex  4.000000e+001 -4.700000e+001  3.250000e+001
    endloop
  endfacet
  facet normal -1.000000e+000  0.000000e+000  0.000000e+000
    outer loop
      vertex  4.000000e+001 -4.700000e+001  3.250000e+001
      vertex  4.000000e+001 -4.500000e+001  3.050000e+001
      vertex  4.000000e+001 -4.700000e+001  3.050000e+001
    endloop
  endfacet
  facet normal -9.999999e-001  0.000000e+000  0.000000e+000
    outer loop
      vertex  4.000000e+001 -4.500000e+001  3.050000e+001
      vertex  4.000000e+001 -4.558578e+001  2.908579e+001
      vertex  4.000000e+001 -4.700000e+001  3.050000e+001
    endloop
  endfacet
  facet normal -9.999999e-001  0.000000e+000  0.000000e+000
    outer loop
      vertex  4.000000e+001 -4.700000e+001  3.050000e+001
      vertex  4.000000e+001 -4.558578e+001  2.908579e+001
      vertex  4.000000e+001 -4.700000e+001  2.850000e+001
    endloop
  endfacet
  facet normal -9.999999e-001  0.000000e+000  0.000000e+000
    outer loop
      vertex  4.000000e+001  4.300000e+001  3.250000e+001
      vertex  4.000000e+001  4.300000e+001  3.050000e+001
      vertex  4.000000e+001  4.158578e+001  3.191421e+001
    endloop
  endfacet
  facet normal -9.999999e-001  0.000000e+000  -0.000000e+000
    outer loop
      vertex  4.000000e+001  4.158578e+001  3.191421e+001
      vertex  4.000000e+001  4.300000e+001  3.050000e+001
      vertex  4.000000e+001  4.100000e+001  3.050000e+001
    endloop
  endfacet
  facet normal -1.000000e+000  0.000000e+000  0.000000e+000
    outer loop
      vertex  4.000000e+001  4.300000e+001  3.050000e+001
      vertex  4.000000e+001  4.300000e+001  2.850000e+001
      vertex  4.000000e+001  4.100000e+001  3.050000e+001
    endloop
  endfacet
  facet normal -1.000000e+000  0.000000e+000  0.000000e+000
    outer loop
      vertex  4.000000e+001  4.100000e+001  3.050000e+001
      vertex  4.000000e+001  4.300000e+001  2.850000e+001
      vertex  4.000000e+001  4.158578e+001  2.908579e+001
    endloop
  endfacet
  facet normal  0.000000e+000 -1.000000e+000  0.000000e+000
    outer loop
      vertex  3.000000e+000  4.300000e+001 -3.450000e+001
      vertex  4.000000e+001  4.300000e+001 -3.450000e+001
      vertex  3.000000e+000  4.300000e+001  3.050000e+001
    endloop
  endfacet
  facet normal  0.000000e+000 -1.000000e+000  0.000000e+000
    outer loop
      vertex  3.000000e+000  4.300000e+001  3.050000e+001
      vertex  4.000000e+001  4.300000e+001 -3.450000e+001
      vertex  4.000000e+001  4.300000e+001 -3.250000e+001
    endloop
  endfacet
  facet normal  0.000000e+000 -1.000000e+000  0.000000e+000
    outer loop
      vertex  3.000000e+000  4.300000e+001  3.050000e+001
      vertex  4.000000e+001  4.300000e+001 -3.250000e+001
      vertex  5.000000e+000  4.300000e+001  3.050000e+001
    endloop
  endfacet
  facet normal  0.000000e+000 -1.000000e+000  0.000000e+000
    outer loop
      vertex  5.000000e+000  4.300000e+001  3.050000e+001
      vertex  4.000000e+001  4.300000e+001 -3.250000e+001
      vertex  4.000000e+001  4.300000e+001  2.850000e+001
    endloop
  endfacet
  facet normal  0.000000e+000 -1.000000e+000  0.000000e+000
    outer loop
      vertex  5.000000e+000  4.300000e+001  3.050000e+001
      vertex  4.000000e+001  4.300000e+001  2.850000e+001
      vertex  4.000000e+001  4.300000e+001  3.050000e+001
    endloop
  endfacet
  facet normal  0.000000e+000 -1.000000e+000  0.000000e+000
    outer loop
      vertex  4.000000e+001  4.300000e+001  3.250000e+001
      vertex  5.000000e+000  4.300000e+001  3.250000e+001
      vertex  4.000000e+001  4.300000e+001  3.050000e+001
    endloop
  endfacet
  facet normal  0.000000e+000 -1.000000e+000  0.000000e+000
    outer loop
      vertex  4.000000e+001  4.300000e+001  3.050000e+001
      vertex  5.000000e+000  4.300000e+001  3.250000e+001
      vertex  5.000000e+000  4.300000e+001  3.050000e+001
    endloop
  endfacet
  facet normal  1.000000e+000  0.000000e+000  0.000000e+000
    outer loop
      vertex  5.000000e+000  4.300000e+001  3.050000e+001
      vertex  5.000000e+000  4.300000e+001  3.250000e+001
      vertex  5.000000e+000 -4.700000e+001  3.050000e+001
    endloop
  endfacet
  facet normal  1.000000e+000  0.000000e+000  0.000000e+000
    outer loop
      vertex  5.000000e+000 -4.700000e+001  3.050000e+001
      vertex  5.000000e+000  4.300000e+001  3.250000e+001
      vertex  5.000000e+000 -4.700000e+001  3.250000e+001
    endloop
  endfacet
  facet normal  0.000000e+000  0.000000e+000 -1.000000e+000
    outer loop
      vertex  5.000000e+000 -4.700000e+001  3.050000e+001
      vertex  3.000000e+000 -4.700000e+001  3.050000e+001
      vertex  5.000000e+000  4.300000e+001  3.050000e+001
    endloop
  endfacet
  facet normal  -0.000000e+000  0.000000e+000 -1.000000e+000
    outer loop
      vertex  5.000000e+000  4.300000e+001  3.050000e+001
      vertex  3.000000e+000 -4.700000e+001  3.050000e+001
      vertex  3.000000e+000  4.300000e+001  3.050000e+001
    endloop
  endfacet
  facet normal  0.000000e+000  0.000000e+000  1.000000e+000
    outer loop
      vertex  5.000000e+000 -4.700000e+001  3.250000e+001
      vertex  5.000000e+000  4.300000e+001  3.250000e+001
      vertex  0.000000e+000 -4.700000e+001  3.250000e+001
    endloop
  endfacet
  facet normal  0.000000e+000  0.000000e+000  1.000000e+000
    outer loop
      vertex  0.000000e+000 -4.700000e+001  3.250000e+001
      vertex  5.000000e+000  4.300000e+001  3.250000e+001
      vertex  0.000000e+000  4.300000e+001  3.250000e+001
    endloop
  endfacet
  facet normal  0.000000e+000 -9.238800e-001 -3.826822e-001
    outer loop
      vertex  0.000000e+000 -4.900000e+001 -3.450000e+001
      vertex  0.000000e+000 -4.841422e+001 -3.591422e+001
      vertex  4.000000e+001 -4.900000e+001 -3.450000e+001
    endloop
  endfacet
  facet normal  0.000000e+000  9.238800e-001 -3.826822e-001
    outer loop
      vertex  4.000000e+001 -4.500000e+001 -3.450000e+001
      vertex  4.300000e+001 -4.500000e+001 -3.450000e+001
      vertex  4.000000e+001 -4.558578e+001 -3.591422e+001
    endloop
  endfacet
  facet normal  0.000000e+000  9.238800e-001 -3.826822e-001
    outer loop
      vertex  4.000000e+001 -4.558578e+001 -3.591422e+001
      vertex  4.300000e+001 -4.500000e+001 -3.450000e+001
      vertex  4.300000e+001 -4.558578e+001 -3.591422e+001
    endloop
  endfacet
  facet normal  0.000000e+000  3.826822e-001 -9.238800e-001
    outer loop
      vertex  4.000000e+001 -4.558578e+001 -3.591422e+001
      vertex  4.300000e+001 -4.558578e+001 -3.591422e+001
      vertex  4.000000e+001 -4.700000e+001 -3.650000e+001
    endloop
  endfacet
  facet normal  0.000000e+000  3.826822e-001 -9.238800e-001
    outer loop
      vertex  4.000000e+001 -4.700000e+001 -3.650000e+001
      vertex  4.300000e+001 -4.558578e+001 -3.591422e+001
      vertex  4.300000e+001 -4.700000e+001 -3.650000e+001
    endloop
  endfacet
  facet normal  -0.000000e+000 -3.826822e-001 -9.238800e-001
    outer loop
      vertex  4.000000e+001 -4.700000e+001 -3.650000e+001
      vertex  4.300000e+001 -4.700000e+001 -3.650000e+001
      vertex  4.300000e+001 -4.841422e+001 -3.591422e+001
    endloop
  endfacet
  facet normal  -0.000000e+000 -3.826822e-001 -9.238800e-001
    outer loop
      vertex  0.000000e+000 -4.700000e+001 -3.650000e+001
      vertex  4.000000e+001 -4.700000e+001 -3.650000e+001
      vertex  0.000000e+000 -4.841422e+001 -3.591422e+001
    endloop
  endfacet
  facet normal  0.000000e+000 -3.826822e-001 -9.238800e-001
    outer loop
      vertex  0.000000e+000 -4.841422e+001 -3.591422e+001
      vertex  4.000000e+001 -4.700000e+001 -3.650000e+001
      vertex  4.300000e+001 -4.841422e+001 -3.591422e+001
    endloop
  endfacet
  facet normal  -0.000000e+000 -9.238800e-001 -3.826822e-001
    outer loop
      vertex  0.000000e+000 -4.841422e+001 -3.591422e+001
      vertex  4.300000e+001 -4.841422e+001 -3.591422e+001
      vertex  4.000000e+001 -4.900000e+001 -3.450000e+001
    endloop
  endfacet
  facet normal  0.000000e+000 -9.238800e-001 -3.826822e-001
    outer loop
      vertex  4.000000e+001 -4.900000e+001 -3.450000e+001
      vertex  4.300000e+001 -4.841422e+001 -3.591422e+001
      vertex  4.300000e+001 -4.900000e+001 -3.450000e+001
    endloop
  endfacet
  facet normal  0.000000e+000 -9.238798e-001  3.826827e-001
    outer loop
      vertex  4.300000e+001 -4.900000e+001  3.050000e+001
      vertex  4.300000e+001 -4.841422e+001  3.191421e+001
      vertex  4.000000e+001 -4.900000e+001  3.050000e+001
    endloop
  endfacet
  facet normal  0.000000e+000 -9.238799e-001  3.826827e-001
    outer loop
      vertex  0.000000e+000 -4.841422e+001  3.191421e+001
      vertex  0.000000e+000 -4.900000e+001  3.050000e+001
      vertex  4.000000e+001 -4.900000e+001  3.050000e+001
    endloop
  endfacet
  facet normal  0.000000e+000 -9.238798e-001  3.826827e-001
    outer loop
      vertex  0.000000e+000 -4.841422e+001  3.191421e+001
      vertex  4.000000e+001 -4.900000e+001  3.050000e+001
      vertex  4.300000e+001 -4.841422e+001  3.191421e+001
    endloop
  endfacet
  facet normal  0.000000e+000 -3.826833e-001  9.238796e-001
    outer loop
      vertex  0.000000e+000 -4.841422e+001  3.191421e+001
      vertex  4.300000e+001 -4.841422e+001  3.191421e+001
      vertex  4.300000e+001 -4.700000e+001  3.250000e+001
    endloop
  endfacet
  facet normal  0.000000e+000 -3.826833e-001  9.238796e-001
    outer loop
      vertex  0.000000e+000 -4.841422e+001  3.191421e+001
      vertex  4.300000e+001 -4.700000e+001  3.250000e+001
      vertex  4.000000e+001 -4.700000e+001  3.250000e+001
    endloop
  endfacet
  facet normal  0.000000e+000 -3.826833e-001  9.238796e-001
    outer loop
      vertex  0.000000e+000 -4.841422e+001  3.191421e+001
      vertex  4.000000e+001 -4.700000e+001  3.250000e+001
      vertex  5.000000e+000 -4.700000e+001  3.250000e+001
    endloop
  endfacet
  facet normal  0.000000e+000 -3.826833e-001  9.238796e-001
    outer loop
      vertex  0.000000e+000 -4.841422e+001  3.191421e+001
      vertex  5.000000e+000 -4.700000e+001  3.250000e+001
      vertex  0.000000e+000 -4.700000e+001  3.250000e+001
    endloop
  endfacet
  facet normal  0.000000e+000  3.826833e-001  9.238796e-001
    outer loop
      vertex  4.000000e+001 -4.700000e+001  3.250000e+001
      vertex  4.300000e+001 -4.700000e+001  3.250000e+001
      vertex  4.000000e+001 -4.558578e+001  3.191421e+001
    endloop
  endfacet
  facet normal  -0.000000e+000  3.826833e-001  9.238796e-001
    outer loop
      vertex  4.000000e+001 -4.558578e+001  3.191421e+001
      vertex  4.300000e+001 -4.700000e+001  3.250000e+001
      vertex  4.300000e+001 -4.558578e+001  3.191421e+001
    endloop
  endfacet
  facet normal  0.000000e+000  9.238798e-001  3.826827e-001
    outer loop
      vertex  4.000000e+001 -4.558578e+001  3.191421e+001
      vertex  4.300000e+001 -4.558578e+001  3.191421e+001
      vertex  4.000000e+001 -4.500000e+001  3.050000e+001
    endloop
  endfacet
  facet normal  -0.000000e+000  9.238798e-001  3.826827e-001
    outer loop
      vertex  4.000000e+001 -4.500000e+001  3.050000e+001
      vertex  4.300000e+001 -4.558578e+001  3.191421e+001
      vertex  4.300000e+001 -4.500000e+001  3.050000e+001
    endloop
  endfacet
  facet normal  0.000000e+000  9.238800e-001 -3.826822e-001
    outer loop
      vertex  4.300000e+001  4.500000e+001 -3.450000e+001
      vertex  4.300000e+001  4.441422e+001 -3.591422e+001
      vertex  4.000000e+001  4.500000e+001 -3.450000e+001
    endloop
  endfacet
  facet normal  0.000000e+000  3.826822e-001 -9.238800e-001
    outer loop
      vertex  0.000000e+000  4.300000e+001 -3.650000e+001
      vertex  0.000000e+000  4.441422e+001 -3.591422e+001
      vertex  4.000000e+001  4.300000e+001 -3.650000e+001
    endloop
  endfacet
  facet normal  0.000000e+000  9.238800e-001 -3.826822e-001
    outer loop
      vertex  0.000000e+000  4.500000e+001 -3.450000e+001
      vertex  4.000000e+001  4.500000e+001 -3.450000e+001
      vertex  0.000000e+000  4.441422e+001 -3.591422e+001
    endloop
  endfacet
  facet normal  0.000000e+000  9.238800e-001 -3.826822e-001
    outer loop
      vertex  0.000000e+000  4.441422e+001 -3.591422e+001
      vertex  4.000000e+001  4.500000e+001 -3.450000e+001
      vertex  4.300000e+001  4.441422e+001 -3.591422e+001
    endloop
  endfacet
  facet normal  0.000000e+000  3.826822e-001 -9.238800e-001
    outer loop
      vertex  0.000000e+000  4.441422e+001 -3.591422e+001
      vertex  4.300000e+001  4.441422e+001 -3.591422e+001
      vertex  4.000000e+001  4.300000e+001 -3.650000e+001
    endloop
  endfacet
  facet normal  0.000000e+000  3.826822e-001 -9.238800e-001
    outer loop
      vertex  4.000000e+001  4.300000e+001 -3.650000e+001
      vertex  4.300000e+001  4.441422e+001 -3.591422e+001
      vertex  4.300000e+001  4.300000e+001 -3.650000e+001
    endloop
  endfacet
  facet normal  -0.000000e+000 -3.826822e-001 -9.238800e-001
    outer loop
      vertex  4.000000e+001  4.300000e+001 -3.650000e+001
      vertex  4.300000e+001  4.300000e+001 -3.650000e+001
      vertex  4.000000e+001  4.158578e+001 -3.591422e+001
    endloop
  endfacet
  facet normal  0.000000e+000 -3.826822e-001 -9.238800e-001
    outer loop
      vertex  4.000000e+001  4.158578e+001 -3.591422e+001
      vertex  4.300000e+001  4.300000e+001 -3.650000e+001
      vertex  4.300000e+001  4.158578e+001 -3.591422e+001
    endloop
  endfacet
  facet normal  -0.000000e+000 -9.238800e-001 -3.826822e-001
    outer loop
      vertex  4.000000e+001  4.158578e+001 -3.591422e+001
      vertex  4.300000e+001  4.158578e+001 -3.591422e+001
      vertex  4.000000e+001  4.100000e+001 -3.450000e+001
    endloop
  endfacet
  facet normal  0.000000e+000 -9.238800e-001 -3.826822e-001
    outer loop
      vertex  4.000000e+001  4.100000e+001 -3.450000e+001
      vertex  4.300000e+001  4.158578e+001 -3.591422e+001
      vertex  4.300000e+001  4.100000e+001 -3.450000e+001
    endloop
  endfacet
  facet normal  0.000000e+000  9.238799e-001  3.826827e-001
    outer loop
      vertex  0.000000e+000  4.500000e+001  3.050000e+001
      vertex  0.000000e+000  4.441422e+001  3.191421e+001
      vertex  4.000000e+001  4.500000e+001  3.050000e+001
    endloop
  endfacet
  facet normal  0.000000e+000  9.238798e-001  3.826827e-001
    outer loop
      vertex  4.300000e+001  4.441422e+001  3.191421e+001
      vertex  4.300000e+001  4.500000e+001  3.050000e+001
      vertex  4.000000e+001  4.500000e+001  3.050000e+001
    endloop
  endfacet
  facet normal  0.000000e+000  9.238798e-001  3.826827e-001
    outer loop
      vertex  4.300000e+001  4.441422e+001  3.191421e+001
      vertex  4.000000e+001  4.500000e+001  3.050000e+001
      vertex  0.000000e+000  4.441422e+001  3.191421e+001
    endloop
  endfacet
  facet normal  -0.000000e+000  3.826833e-001  9.238796e-001
    outer loop
      vertex  4.300000e+001  4.441422e+001  3.191421e+001
      vertex  0.000000e+000  4.441422e+001  3.191421e+001
      vertex  0.000000e+000  4.300000e+001  3.250000e+001
    endloop
  endfacet
  facet normal  -0.000000e+000  3.826833e-001  9.238796e-001
    outer loop
      vertex  4.300000e+001  4.441422e+001  3.191421e+001
      vertex  0.000000e+000  4.300000e+001  3.250000e+001
      vertex  5.000000e+000  4.300000e+001  3.250000e+001
    endloop
  endfacet
  facet normal  -0.000000e+000  3.826833e-001  9.238796e-001
    outer loop
      vertex  4.300000e+001  4.441422e+001  3.191421e+001
      vertex  5.000000e+000  4.300000e+001  3.250000e+001
      vertex  4.000000e+001  4.300000e+001  3.250000e+001
    endloop
  endfacet
  facet normal  -0.000000e+000  3.826833e-001  9.238796e-001
    outer loop
      vertex  4.300000e+001  4.441422e+001  3.191421e+001
      vertex  4.000000e+001  4.300000e+001  3.250000e+001
      vertex  4.300000e+001  4.300000e+001  3.250000e+001
    endloop
  endfacet
  facet normal  0.000000e+000 -9.238798e-001  3.826827e-001
    outer loop
      vertex  4.000000e+001  4.100000e+001  3.050000e+001
      vertex  4.300000e+001  4.100000e+001  3.050000e+001
      vertex  4.000000e+001  4.158578e+001  3.191421e+001
    endloop
  endfacet
  facet normal  0.000000e+000 -9.238798e-001  3.826827e-001
    outer loop
      vertex  4.000000e+001  4.158578e+001  3.191421e+001
      vertex  4.300000e+001  4.100000e+001  3.050000e+001
      vertex  4.300000e+001  4.158578e+001  3.191421e+001
    endloop
  endfacet
  facet normal  0.000000e+000 -3.826833e-001  9.238796e-001
    outer loop
      vertex  4.000000e+001  4.158578e+001  3.191421e+001
      vertex  4.300000e+001  4.158578e+001  3.191421e+001
      vertex  4.000000e+001  4.300000e+001  3.250000e+001
    endloop
  endfacet
  facet normal  0.000000e+000 -3.826833e-001  9.238796e-001
    outer loop
      vertex  4.000000e+001  4.300000e+001  3.250000e+001
      vertex  4.300000e+001  4.158578e+001  3.191421e+001
      vertex  4.300000e+001  4.300000e+001  3.250000e+001
    endloop
  endfacet
  facet normal  1.000000e+000  0.000000e+000  0.000000e+000
    outer loop
      vertex  4.000000e+001  4.300000e+001 -3.250000e+001
      vertex  4.000000e+001  4.441422e+001 -3.308578e+001
      vertex  4.000000e+001  4.300000e+001  2.850000e+001
    endloop
  endfacet
  facet normal  1.000000e+000  0.000000e+000  -0.000000e+000
    outer loop
      vertex  4.000000e+001  4.300000e+001  2.850000e+001
      vertex  4.000000e+001  4.441422e+001 -3.308578e+001
      vertex  4.000000e+001  4.441422e+001  2.908579e+001
    endloop
  endfacet
  facet normal  1.000000e+000  0.000000e+000  0.000000e+000
    outer loop
      vertex  4.000000e+001  4.441422e+001  2.908579e+001
      vertex  4.000000e+001  4.441422e+001 -3.308578e+001
      vertex  4.000000e+001  4.500000e+001 -3.450000e+001
    endloop
  endfacet
  facet normal  1.000000e+000  0.000000e+000  -0.000000e+000
    outer loop
      vertex  4.000000e+001  4.441422e+001  2.908579e+001
      vertex  4.000000e+001  4.500000e+001 -3.450000e+001
      vertex  4.000000e+001  4.500000e+001  3.050000e+001
    endloop
  endfacet
  facet normal  1.000000e+000  0.000000e+000  0.000000e+000
    outer loop
      vertex  4.000000e+001 -4.700000e+001  2.850000e+001
      vertex  4.000000e+001 -4.841422e+001 -3.308578e+001
      vertex  4.000000e+001 -4.700000e+001 -3.250000e+001
    endloop
  endfacet
  facet normal  1.000000e+000  0.000000e+000  -0.000000e+000
    outer loop
      vertex  4.000000e+001 -4.900000e+001 -3.450000e+001
      vertex  4.000000e+001 -4.841422e+001 -3.308578e+001
      vertex  4.000000e+001 -4.700000e+001  2.850000e+001
    endloop
  endfacet
  facet normal  1.000000e+000  0.000000e+000  0.000000e+000
    outer loop
      vertex  4.000000e+001 -4.900000e+001 -3.450000e+001
      vertex  4.000000e+001 -4.700000e+001  2.850000e+001
      vertex  4.000000e+001 -4.841422e+001  2.908579e+001
    endloop
  endfacet
  facet normal  1.000000e+000  0.000000e+000  0.000000e+000
    outer loop
      vertex  4.000000e+001 -4.900000e+001 -3.450000e+001
      vertex  4.000000e+001 -4.841422e+001  2.908579e+001
      vertex  4.000000e+001 -4.900000e+001  3.050000e+001
    endloop
  endfacet
  facet normal  0.000000e+000  9.238798e-001 -3.826827e-001
    outer loop
      vertex  4.000000e+001  4.500000e+001  3.050000e+001
      vertex  4.300000e+001  4.500000e+001  3.050000e+001
      vertex  4.000000e+001  4.441422e+001  2.908579e+001
    endloop
  endfacet
  facet normal  0.000000e+000  9.238798e-001 -3.826827e-001
    outer loop
      vertex  4.000000e+001  4.441422e+001  2.908579e+001
      vertex  4.300000e+001  4.500000e+001  3.050000e+001
      vertex  4.300000e+001  4.441422e+001  2.908579e+001
    endloop
  endfacet
  facet normal  0.000000e+000  3.826833e-001 -9.238796e-001
    outer loop
      vertex  4.000000e+001  4.441422e+001  2.908579e+001
      vertex  4.300000e+001  4.441422e+001  2.908579e+001
      vertex  4.000000e+001  4.300000e+001  2.850000e+001
    endloop
  endfacet
  facet normal  0.000000e+000  3.826833e-001 -9.238796e-001
    outer loop
      vertex  4.000000e+001  4.300000e+001  2.850000e+001
      vertex  4.300000e+001  4.441422e+001  2.908579e+001
      vertex  4.300000e+001  4.300000e+001  2.850000e+001
    endloop
  endfacet
  facet normal  -0.000000e+000 -3.826833e-001 -9.238796e-001
    outer loop
      vertex  4.000000e+001  4.300000e+001  2.850000e+001
      vertex  4.300000e+001  4.300000e+001  2.850000e+001
      vertex  4.000000e+001  4.158578e+001  2.908579e+001
    endloop
  endfacet
  facet normal  0.000000e+000 -3.826833e-001 -9.238796e-001
    outer loop
      vertex  4.000000e+001  4.158578e+001  2.908579e+001
      vertex  4.300000e+001  4.300000e+001  2.850000e+001
      vertex  4.300000e+001  4.158578e+001  2.908579e+001
    endloop
  endfacet
  facet normal  -0.000000e+000 -9.238798e-001 -3.826827e-001
    outer loop
      vertex  4.000000e+001  4.158578e+001  2.908579e+001
      vertex  4.300000e+001  4.158578e+001  2.908579e+001
      vertex  4.000000e+001  4.100000e+001  3.050000e+001
    endloop
  endfacet
  facet normal  0.000000e+000 -9.238798e-001 -3.826827e-001
    outer loop
      vertex  4.000000e+001  4.100000e+001  3.050000e+001
      vertex  4.300000e+001  4.158578e+001  2.908579e+001
      vertex  4.300000e+001  4.100000e+001  3.050000e+001
    endloop
  endfacet
  facet normal -9.999999e-001  0.000000e+000  0.000000e+000
    outer loop
      vertex  4.000000e+001  4.158578e+001 -3.308578e+001
      vertex  4.000000e+001  4.300000e+001 -3.250000e+001
      vertex  4.000000e+001  4.100000e+001 -3.450000e+001
    endloop
  endfacet
  facet normal -1.000000e+000  0.000000e+000  0.000000e+000
    outer loop
      vertex  4.000000e+001  4.100000e+001 -3.450000e+001
      vertex  4.000000e+001  4.300000e+001 -3.250000e+001
      vertex  4.000000e+001  4.300000e+001 -3.450000e+001
    endloop
  endfacet
  facet normal  0.000000e+000 -9.238800e-001  3.826822e-001
    outer loop
      vertex  4.000000e+001  4.100000e+001 -3.450000e+001
      vertex  4.300000e+001  4.100000e+001 -3.450000e+001
      vertex  4.000000e+001  4.158578e+001 -3.308578e+001
    endloop
  endfacet
  facet normal  0.000000e+000 -9.238800e-001  3.826822e-001
    outer loop
      vertex  4.000000e+001  4.158578e+001 -3.308578e+001
      vertex  4.300000e+001  4.100000e+001 -3.450000e+001
      vertex  4.300000e+001  4.158578e+001 -3.308578e+001
    endloop
  endfacet
  facet normal  0.000000e+000 -3.826822e-001  9.238800e-001
    outer loop
      vertex  4.000000e+001  4.158578e+001 -3.308578e+001
      vertex  4.300000e+001  4.158578e+001 -3.308578e+001
      vertex  4.000000e+001  4.300000e+001 -3.250000e+001
    endloop
  endfacet
  facet normal  0.000000e+000 -3.826822e-001  9.238800e-001
    outer loop
      vertex  4.000000e+001  4.300000e+001 -3.250000e+001
      vertex  4.300000e+001  4.158578e+001 -3.308578e+001
      vertex  4.300000e+001  4.300000e+001 -3.250000e+001
    endloop
  endfacet
  facet normal  0.000000e+000  3.826822e-001  9.238800e-001
    outer loop
      vertex  4.000000e+001  4.300000e+001 -3.250000e+001
      vertex  4.300000e+001  4.300000e+001 -3.250000e+001
      vertex  4.000000e+001  4.441422e+001 -3.308578e+001
    endloop
  endfacet
  facet normal  -0.000000e+000  3.826822e-001  9.238800e-001
    outer loop
      vertex  4.000000e+001  4.441422e+001 -3.308578e+001
      vertex  4.300000e+001  4.300000e+001 -3.250000e+001
      vertex  4.300000e+001  4.441422e+001 -3.308578e+001
    endloop
  endfacet
  facet normal  0.000000e+000  9.238800e-001  3.826822e-001
    outer loop
      vertex  4.000000e+001  4.441422e+001 -3.308578e+001
      vertex  4.300000e+001  4.441422e+001 -3.308578e+001
      vertex  4.000000e+001  4.500000e+001 -3.450000e+001
    endloop
  endfacet
  facet normal  -0.000000e+000  9.238800e-001  3.826822e-001
    outer loop
      vertex  4.000000e+001  4.500000e+001 -3.450000e+001
      vertex  4.300000e+001  4.441422e+001 -3.308578e+001
      vertex  4.300000e+001  4.500000e+001 -3.450000e+001
    endloop
  endfacet
  facet normal  0.000000e+000  9.238798e-001 -3.826827e-001
    outer loop
      vertex  4.000000e+001 -4.500000e+001  3.050000e+001
      vertex  4.300000e+001 -4.500000e+001  3.050000e+001
      vertex  4.000000e+001 -4.558578e+001  2.908579e+001
    endloop
  endfacet
  facet normal  0.000000e+000  9.238798e-001 -3.826827e-001
    outer loop
      vertex  4.000000e+001 -4.558578e+001  2.908579e+001
      vertex  4.300000e+001 -4.500000e+001  3.050000e+001
      vertex  4.300000e+001 -4.558578e+001  2.908579e+001
    endloop
  endfacet
  facet normal  0.000000e+000  3.826833e-001 -9.238796e-001
    outer loop
      vertex  4.000000e+001 -4.558578e+001  2.908579e+001
      vertex  4.300000e+001 -4.558578e+001  2.908579e+001
      vertex  4.000000e+001 -4.700000e+001  2.850000e+001
    endloop
  endfacet
  facet normal  0.000000e+000  3.826833e-001 -9.238796e-001
    outer loop
      vertex  4.000000e+001 -4.700000e+001  2.850000e+001
      vertex  4.300000e+001 -4.558578e+001  2.908579e+001
      vertex  4.300000e+001 -4.700000e+001  2.850000e+001
    endloop
  endfacet
  facet normal  -0.000000e+000 -3.826833e-001 -9.238796e-001
    outer loop
      vertex  4.000000e+001 -4.700000e+001  2.850000e+001
      vertex  4.300000e+001 -4.700000e+001  2.850000e+001
      vertex  4.000000e+001 -4.841422e+001  2.908579e+001
    endloop
  endfacet
  facet normal  0.000000e+000 -3.826833e-001 -9.238796e-001
    outer loop
      vertex  4.000000e+001 -4.841422e+001  2.908579e+001
      vertex  4.300000e+001 -4.700000e+001  2.850000e+001
      vertex  4.300000e+001 -4.841422e+001  2.908579e+001
    endloop
  endfacet
  facet normal  -0.000000e+000 -9.238798e-001 -3.826827e-001
    outer loop
      vertex  4.000000e+001 -4.841422e+001  2.908579e+001
      vertex  4.300000e+001 -4.841422e+001  2.908579e+001
      vertex  4.000000e+001 -4.900000e+001  3.050000e+001
    endloop
  endfacet
  facet normal  0.000000e+000 -9.238798e-001 -3.826827e-001
    outer loop
      vertex  4.000000e+001 -4.900000e+001  3.050000e+001
      vertex  4.300000e+001 -4.841422e+001  2.908579e+001
      vertex  4.300000e+001 -4.900000e+001  3.050000e+001
    endloop
  endfacet
  facet normal -1.000000e+000  0.000000e+000  0.000000e+000
    outer loop
      vertex  4.000000e+001 -4.700000e+001 -3.450000e+001
      vertex  4.000000e+001 -4.700000e+001 -3.250000e+001
      vertex  4.000000e+001 -4.500000e+001 -3.450000e+001
    endloop
  endfacet
  facet normal -9.999999e-001  0.000000e+000  0.000000e+000
    outer loop
      vertex  4.000000e+001 -4.500000e+001 -3.450000e+001
      vertex  4.000000e+001 -4.700000e+001 -3.250000e+001
      vertex  4.000000e+001 -4.558578e+001 -3.308578e+001
    endloop
  endfacet
  facet normal  0.000000e+000 -9.238800e-001  3.826822e-001
    outer loop
      vertex  4.000000e+001 -4.900000e+001 -3.450000e+001
      vertex  4.300000e+001 -4.900000e+001 -3.450000e+001
      vertex  4.000000e+001 -4.841422e+001 -3.308578e+001
    endloop
  endfacet
  facet normal  0.000000e+000 -9.238800e-001  3.826822e-001
    outer loop
      vertex  4.000000e+001 -4.841422e+001 -3.308578e+001
      vertex  4.300000e+001 -4.900000e+001 -3.450000e+001
      vertex  4.300000e+001 -4.841422e+001 -3.308578e+001
    endloop
  endfacet
  facet normal  0.000000e+000 -3.826822e-001  9.238800e-001
    outer loop
      vertex  4.000000e+001 -4.841422e+001 -3.308578e+001
      vertex  4.300000e+001 -4.841422e+001 -3.308578e+001
      vertex  4.000000e+001 -4.700000e+001 -3.250000e+001
    endloop
  endfacet
  facet normal  0.000000e+000 -3.826822e-001  9.238800e-001
    outer loop
      vertex  4.000000e+001 -4.700000e+001 -3.250000e+001
      vertex  4.300000e+001 -4.841422e+001 -3.308578e+001
      vertex  4.300000e+001 -4.700000e+001 -3.250000e+001
    endloop
  endfacet
  facet normal  0.000000e+000  3.826822e-001  9.238800e-001
    outer loop
      vertex  4.000000e+001 -4.700000e+001 -3.250000e+001
      vertex  4.300000e+001 -4.700000e+001 -3.250000e+001
      vertex  4.000000e+001 -4.558578e+001 -3.308578e+001
    endloop
  endfacet
  facet normal  -0.000000e+000  3.826822e-001  9.238800e-001
    outer loop
      vertex  4.000000e+001 -4.558578e+001 -3.308578e+001
      vertex  4.300000e+001 -4.700000e+001 -3.250000e+001
      vertex  4.300000e+001 -4.558578e+001 -3.308578e+001
    endloop
  endfacet
  facet normal  0.000000e+000  9.238800e-001  3.826822e-001
    outer loop
      vertex  4.000000e+001 -4.558578e+001 -3.308578e+001
      vertex  4.300000e+001 -4.558578e+001 -3.308578e+001
      vertex  4.000000e+001 -4.500000e+001 -3.450000e+001
    endloop
  endfacet
  facet normal  -0.000000e+000  9.238800e-001  3.826822e-001
    outer loop
      vertex  4.000000e+001 -4.500000e+001 -3.450000e+001
      vertex  4.300000e+001 -4.558578e+001 -3.308578e+001
      vertex  4.300000e+001 -4.500000e+001 -3.450000e+001
    endloop
  endfacet
  facet normal -1.000000e+000  0.000000e+000  0.000000e+000
    outer loop
      vertex  0.000000e+000  4.500000e+001  3.050000e+001
      vertex  0.000000e+000 -4.841422e+001  3.191421e+001
      vertex  0.000000e+000  4.441422e+001  3.191421e+001
    endloop
  endfacet
  facet normal -1.000000e+000  0.000000e+000  0.000000e+000
    outer loop
      vertex  0.000000e+000  4.441422e+001  3.191421e+001
      vertex  0.000000e+000 -4.841422e+001  3.191421e+001
      vertex  0.000000e+000 -4.700000e+001  3.250000e+001
    endloop
  endfacet
  facet normal -1.000000e+000  0.000000e+000  0.000000e+000
    outer loop
      vertex  0.000000e+000  4.441422e+001  3.191421e+001
      vertex  0.000000e+000 -4.700000e+001  3.250000e+001
      vertex  0.000000e+000  4.300000e+001  3.250000e+001
    endloop
  endfacet
  facet normal -1.000000e+000  0.000000e+000  0.000000e+000
    outer loop
      vertex  0.000000e+000 -4.841422e+001  3.191421e+001
      vertex  0.000000e+000  4.500000e+001  3.050000e+001
      vertex  0.000000e+000 -4.900000e+001  3.050000e+001
    endloop
  endfacet
  facet normal -1.000000e+000  0.000000e+000  0.000000e+000
    outer loop
      vertex  0.000000e+000 -4.900000e+001  3.050000e+001
      vertex  0.000000e+000  4.500000e+001  3.050000e+001
      vertex  0.000000e+000  4.500000e+001 -3.450000e+001
    endloop
  endfacet
  facet normal -1.000000e+000  0.000000e+000  0.000000e+000
    outer loop
      vertex  0.000000e+000 -4.900000e+001  3.050000e+001
      vertex  0.000000e+000  4.500000e+001 -3.450000e+001
      vertex  0.000000e+000 -4.900000e+001 -3.450000e+001
    endloop
  endfacet
  facet normal -1.000000e+000  0.000000e+000  0.000000e+000
    outer loop
      vertex  0.000000e+000 -4.900000e+001 -3.450000e+001
      vertex  0.000000e+000  4.500000e+001 -3.450000e+001
      vertex  0.000000e+000  4.441422e+001 -3.591422e+001
    endloop
  endfacet
  facet normal -1.000000e+000  0.000000e+000  0.000000e+000
    outer loop
      vertex  0.000000e+000 -4.900000e+001 -3.450000e+001
      vertex  0.000000e+000  4.441422e+001 -3.591422e+001
      vertex  0.000000e+000 -4.841422e+001 -3.591422e+001
    endloop
  endfacet
  facet normal -1.000000e+000  0.000000e+000  0.000000e+000
    outer loop
      vertex  0.000000e+000 -4.841422e+001 -3.591422e+001
      vertex  0.000000e+000  4.441422e+001 -3.591422e+001
      vertex  0.000000e+000  4.300000e+001 -3.650000e+001
    endloop
  endfacet
  facet normal -1.000000e+000  0.000000e+000  0.000000e+000
    outer loop
      vertex  0.000000e+000 -4.841422e+001 -3.591422e+001
      vertex  0.000000e+000  4.300000e+001 -3.650000e+001
      vertex  0.000000e+000 -4.700000e+001 -3.650000e+001
    endloop
  endfacet
  facet normal  0.000000e+000  1.000000e+000  -0.000000e+000
    outer loop
      vertex  4.000000e+001  4.500000e+001  3.050000e+001
      vertex  4.000000e+001  4.500000e+001 -3.450000e+001
      vertex  0.000000e+000  4.500000e+001  3.050000e+001
    endloop
  endfacet
  facet normal  0.000000e+000  1.000000e+000  0.000000e+000
    outer loop
      vertex  0.000000e+000  4.500000e+001  3.050000e+001
      vertex  4.000000e+001  4.500000e+001 -3.450000e+001
      vertex  0.000000e+000  4.500000e+001 -3.450000e+001
    endloop
  endfacet
  facet normal  0.000000e+000 -1.000000e+000  -0.000000e+000
    outer loop
      vertex  4.000000e+001 -4.900000e+001 -3.450000e+001
      vertex  4.000000e+001 -4.900000e+001  3.050000e+001
      vertex  0.000000e+000 -4.900000e+001 -3.450000e+001
    endloop
  endfacet
  facet normal  0.000000e+000 -1.000000e+000  0.000000e+000
    outer loop
      vertex  0.000000e+000 -4.900000e+001 -3.450000e+001
      vertex  4.000000e+001 -4.900000e+001  3.050000e+001
      vertex  0.000000e+000 -4.900000e+001  3.050000e+001
    endloop
  endfacet
  facet normal  1.000000e+000  0.000000e+000  0.000000e+000
    outer loop
      vertex  4.300000e+001  4.158578e+001  3.191421e+001
      vertex  4.300000e+001  4.441422e+001  3.191421e+001
      vertex  4.300000e+001  4.300000e+001  3.250000e+001
    endloop
  endfacet
  facet normal  1.000000e+000  -0.000000e+000  0.000000e+000
    outer loop
      vertex  4.300000e+001  4.441422e+001  3.191421e+001
      vertex  4.300000e+001  4.158578e+001  3.191421e+001
      vertex  4.300000e+001  4.500000e+001  3.050000e+001
    endloop
  endfacet
  facet normal  9.999999e-001  0.000000e+000  0.000000e+000
    outer loop
      vertex  4.300000e+001  4.500000e+001  3.050000e+001
      vertex  4.300000e+001  4.158578e+001  3.191421e+001
      vertex  4.300000e+001  4.100000e+001  3.050000e+001
    endloop
  endfacet
  facet normal  9.999999e-001  -0.000000e+000  0.000000e+000
    outer loop
      vertex  4.300000e+001  4.500000e+001  3.050000e+001
      vertex  4.300000e+001  4.100000e+001  3.050000e+001
      vertex  4.300000e+001  4.441422e+001  2.908579e+001
    endloop
  endfacet
  facet normal  1.000000e+000  0.000000e+000  0.000000e+000
    outer loop
      vertex  4.300000e+001  4.441422e+001  2.908579e+001
      vertex  4.300000e+001  4.100000e+001  3.050000e+001
      vertex  4.300000e+001  4.158578e+001  2.908579e+001
    endloop
  endfacet
  facet normal  1.000000e+000  -0.000000e+000  0.000000e+000
    outer loop
      vertex  4.300000e+001  4.441422e+001  2.908579e+001
      vertex  4.300000e+001  4.158578e+001  2.908579e+001
      vertex  4.300000e+001  4.300000e+001  2.850000e+001
    endloop
  endfacet
  facet normal  1.000000e+000  0.000000e+000  0.000000e+000
    outer loop
      vertex  4.300000e+001 -4.841422e+001  3.191421e+001
      vertex  4.300000e+001 -4.558578e+001  3.191421e+001
      vertex  4.300000e+001 -4.700000e+001  3.250000e+001
    endloop
  endfacet
  facet normal  1.000000e+000  -0.000000e+000  0.000000e+000
    outer loop
      vertex  4.300000e+001 -4.558578e+001  3.191421e+001
      vertex  4.300000e+001 -4.841422e+001  3.191421e+001
      vertex  4.300000e+001 -4.500000e+001  3.050000e+001
    endloop
  endfacet
  facet normal  9.999999e-001  0.000000e+000  0.000000e+000
    outer loop
      vertex  4.300000e+001 -4.500000e+001  3.050000e+001
      vertex  4.300000e+001 -4.841422e+001  3.191421e+001
      vertex  4.300000e+001 -4.900000e+001  3.050000e+001
    endloop
  endfacet
  facet normal  9.999999e-001  -0.000000e+000  0.000000e+000
    outer loop
      vertex  4.300000e+001 -4.500000e+001  3.050000e+001
      vertex  4.300000e+001 -4.900000e+001  3.050000e+001
      vertex  4.300000e+001 -4.558578e+001  2.908579e+001
    endloop
  endfacet
  facet normal  1.000000e+000  0.000000e+000  0.000000e+000
    outer loop
      vertex  4.300000e+001 -4.558578e+001  2.908579e+001
      vertex  4.300000e+001 -4.900000e+001  3.050000e+001
      vertex  4.300000e+001 -4.841422e+001  2.908579e+001
    endloop
  endfacet
  facet normal  1.000000e+000  -0.000000e+000  0.000000e+000
    outer loop
      vertex  4.300000e+001 -4.558578e+001  2.908579e+001
      vertex  4.300000e+001 -4.841422e+001  2.908579e+001
      vertex  4.300000e+001 -4.700000e+001  2.850000e+001
    endloop
  endfacet
  facet normal  1.000000e+000  0.000000e+000  0.000000e+000
    outer loop
      vertex  4.300000e+001  4.158578e+001 -3.308578e+001
      vertex  4.300000e+001  4.441422e+001 -3.308578e+001
      vertex  4.300000e+001  4.300000e+001 -3.250000e+001
    endloop
  endfacet
  facet normal  1.000000e+000  -0.000000e+000  0.000000e+000
    outer loop
      vertex  4.300000e+001  4.441422e+001 -3.308578e+001
      vertex  4.300000e+001  4.158578e+001 -3.308578e+001
      vertex  4.300000e+001  4.500000e+001 -3.450000e+001
    endloop
  endfacet
  facet normal  9.999999e-001  0.000000e+000  0.000000e+000
    outer loop
      vertex  4.300000e+001  4.500000e+001 -3.450000e+001
      vertex  4.300000e+001  4.158578e+001 -3.308578e+001
      vertex  4.300000e+001  4.100000e+001 -3.450000e+001
    endloop
  endfacet
  facet normal  9.999999e-001  -0.000000e+000  0.000000e+000
    outer loop
      vertex  4.300000e+001  4.500000e+001 -3.450000e+001
      vertex  4.300000e+001  4.100000e+001 -3.450000e+001
      vertex  4.300000e+001  4.441422e+001 -3.591422e+001
    endloop
  endfacet
  facet normal  1.000000e+000  0.000000e+000  0.000000e+000
    outer loop
      vertex  4.300000e+001  4.441422e+001 -3.591422e+001
      vertex  4.300000e+001  4.100000e+001 -3.450000e+001
      vertex  4.300000e+001  4.158578e+001 -3.591422e+001
    endloop
  endfacet
  facet normal  1.000000e+000  -0.000000e+000  0.000000e+000
    outer loop
      vertex  4.300000e+001  4.441422e+001 -3.591422e+001
      vertex  4.300000e+001  4.158578e+001 -3.591422e+001
      vertex  4.300000e+001  4.300000e+001 -3.650000e+001
    endloop
  endfacet
  facet normal  1.000000e+000  0.000000e+000  0.000000e+000
    outer loop
      vertex  4.300000e+001 -4.841422e+001 -3.308578e+001
      vertex  4.300000e+001 -4.558578e+001 -3.308578e+001
      vertex  4.300000e+001 -4.700000e+001 -3.250000e+001
    endloop
  endfacet
  facet normal  1.000000e+000  -0.000000e+000  0.000000e+000
    outer loop
      vertex  4.300000e+001 -4.558578e+001 -3.308578e+001
      vertex  4.300000e+001 -4.841422e+001 -3.308578e+001
      vertex  4.300000e+001 -4.500000e+001 -3.450000e+001
    endloop
  endfacet
  facet normal  9.999999e-001  0.000000e+000  0.000000e+000
    outer loop
      vertex  4.300000e+001 -4.500000e+001 -3.450000e+001
      vertex  4.300000e+001 -4.841422e+001 -3.308578e+001
      vertex  4.300000e+001 -4.900000e+001 -3.450000e+001
    endloop
  endfacet
  facet normal  9.999999e-001  -0.000000e+000  0.000000e+000
    outer loop
      vertex  4.300000e+001 -4.500000e+001 -3.450000e+001
      vertex  4.300000e+001 -4.900000e+001 -3.450000e+001
      vertex  4.300000e+001 -4.558578e+001 -3.591422e+001
    endloop
  endfacet
  facet normal  1.000000e+000  0.000000e+000  0.000000e+000
    outer loop
      vertex  4.300000e+001 -4.558578e+001 -3.591422e+001
      vertex  4.300000e+001 -4.900000e+001 -3.450000e+001
      vertex  4.300000e+001 -4.841422e+001 -3.591422e+001
    endloop
  endfacet
  facet normal  1.000000e+000  -0.000000e+000  0.000000e+000
    outer loop
      vertex  4.300000e+001 -4.558578e+001 -3.591422e+001
      vertex  4.300000e+001 -4.841422e+001 -3.591422e+001
      vertex  4.300000e+001 -4.700000e+001 -3.650000e+001
    endloop
  endfacet
  facet normal  1.000000e+000  0.000000e+000  0.000000e+000
    outer loop
      vertex  3.000000e+000 -4.700000e+001 -3.450000e+001
      vertex  3.000000e+000  4.300000e+001 -3.450000e+001
      vertex  3.000000e+000 -4.700000e+001  3.050000e+001
    endloop
  endfacet
  facet normal  1.000000e+000  -0.000000e+000  0.000000e+000
    outer loop
      vertex  3.000000e+000 -4.700000e+001  3.050000e+001
      vertex  3.000000e+000  4.300000e+001 -3.450000e+001
      vertex  3.000000e+000  4.300000e+001  3.050000e+001
    endloop
  endfacet
endsolid CATIA STL
