solid CATIA STL
  facet normal -3.797120e-001  9.251049e-001  0.000000e+000
    outer loop
      vertex  2.791280e+000  1.759361e+001  4.509361e+001
      vertex  2.578218e+000  1.750616e+001 -4.500616e+001
      vertex  2.578218e+000  1.750616e+001  4.500616e+001
    endloop
  endfacet
  facet normal -7.844802e-002  9.969183e-001  0.000000e+000
    outer loop
      vertex  2.578218e+000  1.750616e+001  4.500616e+001
      vertex  2.578218e+000  1.750616e+001 -4.500616e+001
      vertex  2.500000e+000  1.750000e+001 -4.500000e+001
    endloop
  endfacet
  facet normal -7.844802e-002  9.969182e-001  0.000000e+000
    outer loop
      vertex  2.578218e+000  1.750616e+001  4.500616e+001
      vertex  2.500000e+000  1.750000e+001 -4.500000e+001
      vertex  2.500000e+000  1.750000e+001  4.500000e+001
    endloop
  endfacet
  facet normal -3.797120e-001  9.251048e-001  0.000000e+000
    outer loop
      vertex  2.578218e+000  1.750616e+001 -4.500616e+001
      vertex  2.791280e+000  1.759361e+001  4.509361e+001
      vertex  2.791280e+000  1.759361e+001 -4.509361e+001
    endloop
  endfacet
  facet normal -7.090904e-001  7.051176e-001  0.000000e+000
    outer loop
      vertex  2.791280e+000  1.759361e+001 -4.509361e+001
      vertex  2.791280e+000  1.759361e+001  4.509361e+001
      vertex  2.908029e+000  1.771101e+001  4.521101e+001
    endloop
  endfacet
  facet normal -7.090961e-001  7.051119e-001  1.487352e-008
    outer loop
      vertex  2.791280e+000  1.759361e+001 -4.509361e+001
      vertex  2.908029e+000  1.771101e+001  4.521101e+001
      vertex  2.908029e+000  1.771102e+001 -4.521101e+001
    endloop
  endfacet
  facet normal -9.529060e-001  3.032658e-001  6.397043e-009
    outer loop
      vertex  2.908029e+000  1.771102e+001 -4.521101e+001
      vertex  2.908029e+000  1.771101e+001  4.521101e+001
      vertex  3.000000e+000  1.800000e+001  4.550000e+001
    endloop
  endfacet
  facet normal -9.529055e-001  3.032677e-001  0.000000e+000
    outer loop
      vertex  2.908029e+000  1.771102e+001 -4.521101e+001
      vertex  3.000000e+000  1.800000e+001  4.550000e+001
      vertex  3.000000e+000  1.800000e+001 -4.550000e+001
    endloop
  endfacet
  facet normal -2.230973e-001 -9.747962e-001  -0.000000e+000
    outer loop
      vertex  3.500000e+000 -1.650000e+001 -4.700000e+001
      vertex  3.500000e+000 -1.650000e+001 -4.550000e+001
      vertex  3.282526e+000 -1.645023e+001 -4.695023e+001
    endloop
  endfacet
  facet normal -3.825566e-001 -9.235754e-001  2.567012e-002
    outer loop
      vertex  3.282526e+000 -1.645023e+001 -4.695023e+001
      vertex  3.500000e+000 -1.650000e+001 -4.550000e+001
      vertex  3.146447e+000 -1.635355e+001 -4.550000e+001
    endloop
  endfacet
  facet normal -5.860491e-001 -8.102750e-001 -9.769573e-004
    outer loop
      vertex  3.282526e+000 -1.645023e+001 -4.695023e+001
      vertex  3.146447e+000 -1.635355e+001 -4.550000e+001
      vertex  3.140906e+000 -1.634792e+001 -4.684792e+001
    endloop
  endfacet
  facet normal -8.937666e-001 -4.485286e-001  1.799439e-003
    outer loop
      vertex  3.140906e+000 -1.634792e+001 -4.684792e+001
      vertex  3.146447e+000 -1.635355e+001 -4.550000e+001
      vertex  3.006181e+000 -1.607838e+001 -4.657838e+001
    endloop
  endfacet
  facet normal -9.236454e-001 -3.825863e-001  2.251264e-002
    outer loop
      vertex  3.006181e+000 -1.607838e+001 -4.657838e+001
      vertex  3.146447e+000 -1.635355e+001 -4.550000e+001
      vertex  3.000000e+000 -1.600000e+001 -4.550000e+001
    endloop
  endfacet
  facet normal -9.969044e-001 -7.862270e-002  -0.000000e+000
    outer loop
      vertex  3.006181e+000 -1.607838e+001 -4.657838e+001
      vertex  3.000000e+000 -1.600000e+001 -4.550000e+001
      vertex  3.000000e+000 -1.600000e+001 -4.650000e+001
    endloop
  endfacet
  facet normal -1.000000e+000  0.000000e+000  0.000000e+000
    outer loop
      vertex  3.000000e+000  1.900000e+001  4.650000e+001
      vertex  3.000000e+000 -1.600000e+001  4.550000e+001
      vertex  3.000000e+000 -1.600000e+001  4.650000e+001
    endloop
  endfacet
  facet normal -1.000000e+000  0.000000e+000  0.000000e+000
    outer loop
      vertex  3.000000e+000 -1.600000e+001  4.550000e+001
      vertex  3.000000e+000  1.900000e+001  4.650000e+001
      vertex  3.000000e+000  1.800000e+001  4.550000e+001
    endloop
  endfacet
  facet normal -1.000000e+000  0.000000e+000  0.000000e+000
    outer loop
      vertex  3.000000e+000  1.800000e+001  4.550000e+001
      vertex  3.000000e+000  1.900000e+001  4.650000e+001
      vertex  3.000000e+000  1.900000e+001 -4.650000e+001
    endloop
  endfacet
  facet normal -1.000000e+000  0.000000e+000  0.000000e+000
    outer loop
      vertex  3.000000e+000  1.800000e+001  4.550000e+001
      vertex  3.000000e+000  1.900000e+001 -4.650000e+001
      vertex  3.000000e+000  1.800000e+001 -4.550000e+001
    endloop
  endfacet
  facet normal -1.000000e+000  0.000000e+000  -0.000000e+000
    outer loop
      vertex  3.000000e+000  1.800000e+001 -4.550000e+001
      vertex  3.000000e+000  1.900000e+001 -4.650000e+001
      vertex  3.000000e+000 -1.600000e+001 -4.650000e+001
    endloop
  endfacet
  facet normal -1.000000e+000  0.000000e+000  0.000000e+000
    outer loop
      vertex  3.000000e+000  1.800000e+001 -4.550000e+001
      vertex  3.000000e+000 -1.600000e+001 -4.650000e+001
      vertex  3.000000e+000 -1.600000e+001 -4.550000e+001
    endloop
  endfacet
  facet normal  0.000000e+000  0.000000e+000 -1.000000e+000
    outer loop
      vertex  2.633975e+000 -1.650000e+001 -4.500000e+001
      vertex  5.000000e-001 -1.650000e+001 -4.500000e+001
      vertex  2.500000e+000 -1.600000e+001 -4.500000e+001
    endloop
  endfacet
  facet normal  -0.000000e+000  0.000000e+000 -1.000000e+000
    outer loop
      vertex  2.500000e+000 -1.600000e+001 -4.500000e+001
      vertex  5.000000e-001 -1.650000e+001 -4.500000e+001
      vertex  5.000000e-001  1.750000e+001 -4.500000e+001
    endloop
  endfacet
  facet normal  0.000000e+000  0.000000e+000 -1.000000e+000
    outer loop
      vertex  2.500000e+000 -1.600000e+001 -4.500000e+001
      vertex  5.000000e-001  1.750000e+001 -4.500000e+001
      vertex  2.500000e+000  1.750000e+001 -4.500000e+001
    endloop
  endfacet
  facet normal  0.000000e+000 -1.000000e+000  0.000000e+000
    outer loop
      vertex  5.000000e-001 -1.650000e+001 -4.500000e+001
      vertex  2.633975e+000 -1.650000e+001 -4.500000e+001
      vertex  5.000000e-001 -1.650000e+001  4.500000e+001
    endloop
  endfacet
  facet normal  0.000000e+000 -1.000000e+000  0.000000e+000
    outer loop
      vertex  2.633975e+000 -1.650000e+001 -4.500000e+001
      vertex  2.994246e+000 -1.650000e+001 -4.509185e+001
      vertex  5.000000e-001 -1.650000e+001  4.500000e+001
    endloop
  endfacet
  facet normal  0.000000e+000 -1.000000e+000  0.000000e+000
    outer loop
      vertex  4.500000e+000 -1.650000e+001  4.700000e+001
      vertex  3.500000e+000 -1.650000e+001  4.700000e+001
      vertex  3.500000e+000 -1.650000e+001  4.550000e+001
    endloop
  endfacet
  facet normal  0.000000e+000 -1.000000e+000  0.000000e+000
    outer loop
      vertex  3.500000e+000 -1.650000e+001 -4.550000e+001
      vertex  3.500000e+000 -1.650000e+001 -4.700000e+001
      vertex  4.500000e+000 -1.650000e+001 -4.700000e+001
    endloop
  endfacet
  facet normal  0.000000e+000 -9.999999e-001  0.000000e+000
    outer loop
      vertex  3.500000e+000 -1.650000e+001 -4.550000e+001
      vertex  4.500000e+000 -1.650000e+001 -4.700000e+001
      vertex  4.500000e+000 -1.650000e+001  4.700000e+001
    endloop
  endfacet
  facet normal  0.000000e+000 -1.000000e+000  0.000000e+000
    outer loop
      vertex  3.500000e+000 -1.650000e+001 -4.550000e+001
      vertex  4.500000e+000 -1.650000e+001  4.700000e+001
      vertex  3.500000e+000 -1.650000e+001  4.550000e+001
    endloop
  endfacet
  facet normal  0.000000e+000 -1.000000e+000  -0.000000e+000
    outer loop
      vertex  3.500000e+000 -1.650000e+001 -4.550000e+001
      vertex  3.500000e+000 -1.650000e+001  4.550000e+001
      vertex  2.994246e+000 -1.650000e+001  4.509185e+001
    endloop
  endfacet
  facet normal  0.000000e+000 -1.000000e+000  -0.000000e+000
    outer loop
      vertex  3.500000e+000 -1.650000e+001 -4.550000e+001
      vertex  2.994246e+000 -1.650000e+001  4.509185e+001
      vertex  2.633975e+000 -1.650000e+001  4.500000e+001
    endloop
  endfacet
  facet normal  -0.000000e+000 -1.000000e+000  -0.000000e+000
    outer loop
      vertex  3.500000e+000 -1.650000e+001 -4.550000e+001
      vertex  2.633975e+000 -1.650000e+001  4.500000e+001
      vertex  5.000000e-001 -1.650000e+001  4.500000e+001
    endloop
  endfacet
  facet normal  0.000000e+000 -9.999999e-001  0.000000e+000
    outer loop
      vertex  3.500000e+000 -1.650000e+001 -4.550000e+001
      vertex  5.000000e-001 -1.650000e+001  4.500000e+001
      vertex  2.994246e+000 -1.650000e+001 -4.509185e+001
    endloop
  endfacet
  facet normal  0.000000e+000  1.000000e+000  -0.000000e+000
    outer loop
      vertex  2.500000e+000  1.750000e+001  4.500000e+001
      vertex  2.500000e+000  1.750000e+001 -4.500000e+001
      vertex  5.000000e-001  1.750000e+001  4.500000e+001
    endloop
  endfacet
  facet normal  0.000000e+000  1.000000e+000  0.000000e+000
    outer loop
      vertex  5.000000e-001  1.750000e+001  4.500000e+001
      vertex  2.500000e+000  1.750000e+001 -4.500000e+001
      vertex  5.000000e-001  1.750000e+001 -4.500000e+001
    endloop
  endfacet
  facet normal -2.230973e-001  9.747962e-001  0.000000e+000
    outer loop
      vertex  3.500000e+000  1.950000e+001  4.700000e+001
      vertex  3.500000e+000  1.950000e+001 -4.700000e+001
      vertex  3.282526e+000  1.945023e+001  4.695023e+001
    endloop
  endfacet
  facet normal -2.230973e-001  9.747962e-001  0.000000e+000
    outer loop
      vertex  3.282526e+000  1.945023e+001  4.695023e+001
      vertex  3.500000e+000  1.950000e+001 -4.700000e+001
      vertex  3.282526e+000  1.945023e+001 -4.695023e+001
    endloop
  endfacet
  facet normal -5.855857e-001  8.106104e-001  0.000000e+000
    outer loop
      vertex  3.282526e+000  1.945023e+001  4.695023e+001
      vertex  3.282526e+000  1.945023e+001 -4.695023e+001
      vertex  3.140906e+000  1.934792e+001  4.684792e+001
    endloop
  endfacet
  facet normal -5.855858e-001  8.106105e-001  0.000000e+000
    outer loop
      vertex  3.140906e+000  1.934792e+001  4.684792e+001
      vertex  3.282526e+000  1.945023e+001 -4.695023e+001
      vertex  3.140906e+000  1.934792e+001 -4.684792e+001
    endloop
  endfacet
  facet normal -8.944889e-001  4.470902e-001  0.000000e+000
    outer loop
      vertex  3.140906e+000  1.934792e+001  4.684792e+001
      vertex  3.140906e+000  1.934792e+001 -4.684792e+001
      vertex  3.006181e+000  1.907838e+001  4.657838e+001
    endloop
  endfacet
  facet normal -8.944889e-001  4.470901e-001  0.000000e+000
    outer loop
      vertex  3.006181e+000  1.907838e+001  4.657838e+001
      vertex  3.140906e+000  1.934792e+001 -4.684792e+001
      vertex  3.006181e+000  1.907838e+001 -4.657838e+001
    endloop
  endfacet
  facet normal -9.969044e-001  7.862271e-002  0.000000e+000
    outer loop
      vertex  3.006181e+000  1.907838e+001  4.657838e+001
      vertex  3.006181e+000  1.907838e+001 -4.657838e+001
      vertex  3.000000e+000  1.900000e+001  4.650000e+001
    endloop
  endfacet
  facet normal -9.969044e-001  7.862269e-002  0.000000e+000
    outer loop
      vertex  3.000000e+000  1.900000e+001  4.650000e+001
      vertex  3.006181e+000  1.907838e+001 -4.657838e+001
      vertex  3.000000e+000  1.900000e+001 -4.650000e+001
    endloop
  endfacet
  facet normal -7.089936e-001 -2.050079e-004 -7.052149e-001
    outer loop
      vertex  2.791280e+000  1.759361e+001 -4.509361e+001
      vertex  2.908029e+000  1.771102e+001 -4.521101e+001
      vertex  2.853553e+000 -1.600000e+001 -4.514645e+001
    endloop
  endfacet
  facet normal -9.531829e-001  9.611286e-004 -3.023928e-001
    outer loop
      vertex  2.853553e+000 -1.600000e+001 -4.514645e+001
      vertex  2.908029e+000  1.771102e+001 -4.521101e+001
      vertex  3.000000e+000  1.800000e+001 -4.550000e+001
    endloop
  endfacet
  facet normal -9.238796e-001  -0.000000e+000 -3.826833e-001
    outer loop
      vertex  2.853553e+000 -1.600000e+001 -4.514645e+001
      vertex  3.000000e+000  1.800000e+001 -4.550000e+001
      vertex  3.000000e+000 -1.600000e+001 -4.550000e+001
    endloop
  endfacet
  facet normal -7.847217e-002  0.000000e+000 -9.969163e-001
    outer loop
      vertex  2.500000e+000  1.750000e+001 -4.500000e+001
      vertex  2.578218e+000  1.750616e+001 -4.500616e+001
      vertex  2.500000e+000 -1.600000e+001 -4.500000e+001
    endloop
  endfacet
  facet normal -3.799495e-001  7.169932e-004 -9.250069e-001
    outer loop
      vertex  2.500000e+000 -1.600000e+001 -4.500000e+001
      vertex  2.578218e+000  1.750616e+001 -4.500616e+001
      vertex  2.791280e+000  1.759361e+001 -4.509361e+001
    endloop
  endfacet
  facet normal -3.826826e-001  7.438321e-004 -9.238796e-001
    outer loop
      vertex  2.500000e+000 -1.600000e+001 -4.500000e+001
      vertex  2.791280e+000  1.759361e+001 -4.509361e+001
      vertex  2.853553e+000 -1.600000e+001 -4.514645e+001
    endloop
  endfacet
  facet normal -6.050306e-001 -2.680708e-001 -7.497174e-001
    outer loop
      vertex  2.994246e+000 -1.650000e+001 -4.509185e+001
      vertex  3.042893e+000 -1.645711e+001 -4.514645e+001
      vertex  3.500000e+000 -1.650000e+001 -4.550000e+001
    endloop
  endfacet
  facet normal -3.574060e-001 -8.628563e-001 -3.574072e-001
    outer loop
      vertex  3.500000e+000 -1.650000e+001 -4.550000e+001
      vertex  3.042893e+000 -1.645711e+001 -4.514645e+001
      vertex  3.146447e+000 -1.635355e+001 -4.550000e+001
    endloop
  endfacet
  facet normal -8.628563e-001 -3.574063e-001 -3.574070e-001
    outer loop
      vertex  3.146447e+000 -1.635355e+001 -4.550000e+001
      vertex  3.042893e+000 -1.645711e+001 -4.514645e+001
      vertex  2.853553e+000 -1.600000e+001 -4.514645e+001
    endloop
  endfacet
  facet normal -8.628563e-001 -3.574066e-001 -3.574066e-001
    outer loop
      vertex  3.146447e+000 -1.635355e+001 -4.550000e+001
      vertex  2.853553e+000 -1.600000e+001 -4.514645e+001
      vertex  3.000000e+000 -1.600000e+001 -4.550000e+001
    endloop
  endfacet
  facet normal -6.141366e-001 -2.543834e-001 -7.470778e-001
    outer loop
      vertex  3.042893e+000 -1.645711e+001 -4.514645e+001
      vertex  2.994246e+000 -1.650000e+001 -4.509185e+001
      vertex  2.853553e+000 -1.600000e+001 -4.514645e+001
    endloop
  endfacet
  facet normal -2.433339e-001 -1.726882e-001 -9.544461e-001
    outer loop
      vertex  2.853553e+000 -1.600000e+001 -4.514645e+001
      vertex  2.994246e+000 -1.650000e+001 -4.509185e+001
      vertex  2.633975e+000 -1.650000e+001 -4.500000e+001
    endloop
  endfacet
  facet normal -3.806866e-001 -1.020046e-001 -9.190608e-001
    outer loop
      vertex  2.853553e+000 -1.600000e+001 -4.514645e+001
      vertex  2.633975e+000 -1.650000e+001 -4.500000e+001
      vertex  2.500000e+000 -1.600000e+001 -4.500000e+001
    endloop
  endfacet
  facet normal -2.216389e-001 -9.751289e-001  -0.000000e+000
    outer loop
      vertex  5.000000e-001 -1.650000e+001 -4.500000e+001
      vertex  5.000000e-001 -1.650000e+001  4.500000e+001
      vertex  2.838737e-001 -1.645088e+001 -4.495088e+001
    endloop
  endfacet
  facet normal -2.216389e-001 -9.751288e-001  0.000000e+000
    outer loop
      vertex  2.838737e-001 -1.645088e+001 -4.495088e+001
      vertex  5.000000e-001 -1.650000e+001  4.500000e+001
      vertex  2.838737e-001 -1.645088e+001  4.495088e+001
    endloop
  endfacet
  facet normal -6.070476e-001 -7.946655e-001  -0.000000e+000
    outer loop
      vertex  2.838737e-001 -1.645088e+001 -4.495088e+001
      vertex  2.838737e-001 -1.645088e+001  4.495088e+001
      vertex  1.218334e-001 -1.632709e+001 -4.482709e+001
    endloop
  endfacet
  facet normal -6.070653e-001 -7.946519e-001  5.071749e-008
    outer loop
      vertex  1.218334e-001 -1.632709e+001 -4.482709e+001
      vertex  2.838737e-001 -1.645088e+001  4.495088e+001
      vertex  1.218334e-001 -1.632709e+001  4.482710e+001
    endloop
  endfacet
  facet normal -9.371054e-001 -3.490466e-001  2.227738e-008
    outer loop
      vertex  1.218334e-001 -1.632709e+001 -4.482709e+001
      vertex  1.218334e-001 -1.632709e+001  4.482710e+001
      vertex  0.000000e+000 -1.600000e+001 -4.450000e+001
    endloop
  endfacet
  facet normal -9.371034e-001 -3.490519e-001  0.000000e+000
    outer loop
      vertex  0.000000e+000 -1.600000e+001 -4.450000e+001
      vertex  1.218334e-001 -1.632709e+001  4.482710e+001
      vertex  0.000000e+000 -1.600000e+001  4.450000e+001
    endloop
  endfacet
  facet normal -2.216307e-001  0.000000e+000 -9.751307e-001
    outer loop
      vertex  5.000000e-001  1.750000e+001 -4.500000e+001
      vertex  5.000000e-001 -1.650000e+001 -4.500000e+001
      vertex  2.838737e-001  1.745088e+001 -4.495088e+001
    endloop
  endfacet
  facet normal -2.216307e-001  -0.000000e+000 -9.751307e-001
    outer loop
      vertex  2.838737e-001  1.745088e+001 -4.495088e+001
      vertex  5.000000e-001 -1.650000e+001 -4.500000e+001
      vertex  2.838737e-001 -1.645088e+001 -4.495088e+001
    endloop
  endfacet
  facet normal -6.070476e-001  0.000000e+000 -7.946655e-001
    outer loop
      vertex  2.838737e-001  1.745088e+001 -4.495088e+001
      vertex  2.838737e-001 -1.645088e+001 -4.495088e+001
      vertex  1.218334e-001  1.732709e+001 -4.482710e+001
    endloop
  endfacet
  facet normal -6.070713e-001 -1.801464e-007 -7.946474e-001
    outer loop
      vertex  1.218334e-001  1.732709e+001 -4.482710e+001
      vertex  2.838737e-001 -1.645088e+001 -4.495088e+001
      vertex  1.218334e-001 -1.632709e+001 -4.482709e+001
    endloop
  endfacet
  facet normal -9.371060e-001 -7.912838e-008 -3.490448e-001
    outer loop
      vertex  1.218334e-001  1.732709e+001 -4.482710e+001
      vertex  1.218334e-001 -1.632709e+001 -4.482709e+001
      vertex  0.000000e+000  1.700000e+001 -4.450000e+001
    endloop
  endfacet
  facet normal -9.371034e-001  -0.000000e+000 -3.490519e-001
    outer loop
      vertex  0.000000e+000  1.700000e+001 -4.450000e+001
      vertex  1.218334e-001 -1.632709e+001 -4.482709e+001
      vertex  0.000000e+000 -1.600000e+001 -4.450000e+001
    endloop
  endfacet
  facet normal -2.230892e-001  0.000000e+000 -9.747980e-001
    outer loop
      vertex  3.500000e+000  1.950000e+001 -4.700000e+001
      vertex  3.500000e+000 -1.650000e+001 -4.700000e+001
      vertex  3.282526e+000  1.945023e+001 -4.695023e+001
    endloop
  endfacet
  facet normal -2.230892e-001  -0.000000e+000 -9.747980e-001
    outer loop
      vertex  3.282526e+000  1.945023e+001 -4.695023e+001
      vertex  3.500000e+000 -1.650000e+001 -4.700000e+001
      vertex  3.282526e+000 -1.645023e+001 -4.695023e+001
    endloop
  endfacet
  facet normal -5.855858e-001  0.000000e+000 -8.106105e-001
    outer loop
      vertex  3.282526e+000  1.945023e+001 -4.695023e+001
      vertex  3.282526e+000 -1.645023e+001 -4.695023e+001
      vertex  3.140906e+000  1.934792e+001 -4.684792e+001
    endloop
  endfacet
  facet normal -5.855858e-001  -0.000000e+000 -8.106105e-001
    outer loop
      vertex  3.140906e+000  1.934792e+001 -4.684792e+001
      vertex  3.282526e+000 -1.645023e+001 -4.695023e+001
      vertex  3.140906e+000 -1.634792e+001 -4.684792e+001
    endloop
  endfacet
  facet normal -8.944915e-001  0.000000e+000 -4.470851e-001
    outer loop
      vertex  3.140906e+000  1.934792e+001 -4.684792e+001
      vertex  3.140906e+000 -1.634792e+001 -4.684792e+001
      vertex  3.006181e+000  1.907838e+001 -4.657838e+001
    endloop
  endfacet
  facet normal -8.944914e-001  -0.000000e+000 -4.470851e-001
    outer loop
      vertex  3.006181e+000  1.907838e+001 -4.657838e+001
      vertex  3.140906e+000 -1.634792e+001 -4.684792e+001
      vertex  3.006181e+000 -1.607838e+001 -4.657838e+001
    endloop
  endfacet
  facet normal -9.969043e-001  0.000000e+000 -7.862460e-002
    outer loop
      vertex  3.006181e+000  1.907838e+001 -4.657838e+001
      vertex  3.006181e+000 -1.607838e+001 -4.657838e+001
      vertex  3.000000e+000  1.900000e+001 -4.650000e+001
    endloop
  endfacet
  facet normal -9.969043e-001  -0.000000e+000 -7.862461e-002
    outer loop
      vertex  3.000000e+000  1.900000e+001 -4.650000e+001
      vertex  3.006181e+000 -1.607838e+001 -4.657838e+001
      vertex  3.000000e+000 -1.600000e+001 -4.650000e+001
    endloop
  endfacet
  facet normal -6.050306e-001 -2.680708e-001  7.497174e-001
    outer loop
      vertex  3.042893e+000 -1.645711e+001  4.514645e+001
      vertex  2.994246e+000 -1.650000e+001  4.509185e+001
      vertex  3.500000e+000 -1.650000e+001  4.550000e+001
    endloop
  endfacet
  facet normal -3.574060e-001 -8.628563e-001  3.574072e-001
    outer loop
      vertex  3.500000e+000 -1.650000e+001  4.550000e+001
      vertex  3.146447e+000 -1.635355e+001  4.550000e+001
      vertex  3.042893e+000 -1.645711e+001  4.514645e+001
    endloop
  endfacet
  facet normal -8.628561e-001 -3.574066e-001  3.574070e-001
    outer loop
      vertex  3.042893e+000 -1.645711e+001  4.514645e+001
      vertex  3.146447e+000 -1.635355e+001  4.550000e+001
      vertex  3.000000e+000 -1.600000e+001  4.550000e+001
    endloop
  endfacet
  facet normal -8.628564e-001 -3.574063e-001  3.574067e-001
    outer loop
      vertex  3.042893e+000 -1.645711e+001  4.514645e+001
      vertex  3.000000e+000 -1.600000e+001  4.550000e+001
      vertex  2.853553e+000 -1.600000e+001  4.514645e+001
    endloop
  endfacet
  facet normal -6.141366e-001 -2.543834e-001  7.470778e-001
    outer loop
      vertex  3.042893e+000 -1.645711e+001  4.514645e+001
      vertex  2.853553e+000 -1.600000e+001  4.514645e+001
      vertex  2.994246e+000 -1.650000e+001  4.509185e+001
    endloop
  endfacet
  facet normal -3.746218e-001 -2.041680e-001  9.044191e-001
    outer loop
      vertex  2.994246e+000 -1.650000e+001  4.509185e+001
      vertex  2.853553e+000 -1.600000e+001  4.514645e+001
      vertex  2.500000e+000 -1.600000e+001  4.500000e+001
    endloop
  endfacet
  facet normal -2.465059e-001 -6.605104e-002  9.668878e-001
    outer loop
      vertex  2.994246e+000 -1.650000e+001  4.509185e+001
      vertex  2.500000e+000 -1.600000e+001  4.500000e+001
      vertex  2.633975e+000 -1.650000e+001  4.500000e+001
    endloop
  endfacet
  facet normal -3.826827e-001 -9.238798e-001  -0.000000e+000
    outer loop
      vertex  3.500000e+000 -1.650000e+001  4.550000e+001
      vertex  3.500000e+000 -1.650000e+001  4.700000e+001
      vertex  3.146447e+000 -1.635355e+001  4.550000e+001
    endloop
  endfacet
  facet normal -2.130583e-001 -9.759995e-001 -4.506932e-002
    outer loop
      vertex  3.146447e+000 -1.635355e+001  4.550000e+001
      vertex  3.500000e+000 -1.650000e+001  4.700000e+001
      vertex  3.282526e+000 -1.645023e+001  4.695023e+001
    endloop
  endfacet
  facet normal -5.860338e-001 -8.102860e-001  9.747737e-004
    outer loop
      vertex  3.146447e+000 -1.635355e+001  4.550000e+001
      vertex  3.282526e+000 -1.645023e+001  4.695023e+001
      vertex  3.140906e+000 -1.634793e+001  4.684792e+001
    endloop
  endfacet
  facet normal -9.238774e-001 -3.826824e-001 -2.199430e-003
    outer loop
      vertex  3.146447e+000 -1.635355e+001  4.550000e+001
      vertex  3.140906e+000 -1.634793e+001  4.684792e+001
      vertex  3.000000e+000 -1.600000e+001  4.550000e+001
    endloop
  endfacet
  facet normal -8.821691e-001 -4.700323e-001 -2.910616e-002
    outer loop
      vertex  3.000000e+000 -1.600000e+001  4.550000e+001
      vertex  3.140906e+000 -1.634793e+001  4.684792e+001
      vertex  3.006181e+000 -1.607838e+001  4.657838e+001
    endloop
  endfacet
  facet normal -9.969044e-001 -7.862270e-002  0.000000e+000
    outer loop
      vertex  3.000000e+000 -1.600000e+001  4.550000e+001
      vertex  3.006181e+000 -1.607838e+001  4.657838e+001
      vertex  3.000000e+000 -1.600000e+001  4.650000e+001
    endloop
  endfacet
  facet normal  -0.000000e+000  0.000000e+000 -1.000000e+000
    outer loop
      vertex  3.500000e+000  1.950000e+001 -4.700000e+001
      vertex  4.500000e+000  1.950000e+001 -4.700000e+001
      vertex  3.500000e+000 -1.650000e+001 -4.700000e+001
    endloop
  endfacet
  facet normal  0.000000e+000  0.000000e+000 -1.000000e+000
    outer loop
      vertex  3.500000e+000 -1.650000e+001 -4.700000e+001
      vertex  4.500000e+000  1.950000e+001 -4.700000e+001
      vertex  4.500000e+000 -1.650000e+001 -4.700000e+001
    endloop
  endfacet
  facet normal -3.799613e-001  7.506420e-004  9.250020e-001
    outer loop
      vertex  2.791280e+000  1.759361e+001  4.509361e+001
      vertex  2.578218e+000  1.750616e+001  4.500616e+001
      vertex  2.853553e+000 -1.600000e+001  4.514645e+001
    endloop
  endfacet
  facet normal -7.874759e-002  3.526838e-003  9.968884e-001
    outer loop
      vertex  2.853553e+000 -1.600000e+001  4.514645e+001
      vertex  2.578218e+000  1.750616e+001  4.500616e+001
      vertex  2.500000e+000  1.750000e+001  4.500000e+001
    endloop
  endfacet
  facet normal -3.826827e-001  0.000000e+000  9.238799e-001
    outer loop
      vertex  2.853553e+000 -1.600000e+001  4.514645e+001
      vertex  2.500000e+000  1.750000e+001  4.500000e+001
      vertex  2.500000e+000 -1.600000e+001  4.500000e+001
    endloop
  endfacet
  facet normal -7.089936e-001 -2.050079e-004  7.052149e-001
    outer loop
      vertex  2.791280e+000  1.759361e+001  4.509361e+001
      vertex  2.853553e+000 -1.600000e+001  4.514645e+001
      vertex  2.908029e+000  1.771101e+001  4.521101e+001
    endloop
  endfacet
  facet normal -9.238793e-001  7.599929e-004  3.826832e-001
    outer loop
      vertex  2.908029e+000  1.771101e+001  4.521101e+001
      vertex  2.853553e+000 -1.600000e+001  4.514645e+001
      vertex  3.000000e+000 -1.600000e+001  4.550000e+001
    endloop
  endfacet
  facet normal -9.529060e-001  0.000000e+000  3.032658e-001
    outer loop
      vertex  2.908029e+000  1.771101e+001  4.521101e+001
      vertex  3.000000e+000 -1.600000e+001  4.550000e+001
      vertex  3.000000e+000  1.800000e+001  4.550000e+001
    endloop
  endfacet
  facet normal  0.000000e+000  0.000000e+000  1.000000e+000
    outer loop
      vertex  2.633975e+000 -1.650000e+001  4.500000e+001
      vertex  2.500000e+000 -1.600000e+001  4.500000e+001
      vertex  5.000000e-001 -1.650000e+001  4.500000e+001
    endloop
  endfacet
  facet normal  0.000000e+000  0.000000e+000  1.000000e+000
    outer loop
      vertex  5.000000e-001 -1.650000e+001  4.500000e+001
      vertex  2.500000e+000 -1.600000e+001  4.500000e+001
      vertex  2.500000e+000  1.750000e+001  4.500000e+001
    endloop
  endfacet
  facet normal  0.000000e+000  0.000000e+000  1.000000e+000
    outer loop
      vertex  5.000000e-001 -1.650000e+001  4.500000e+001
      vertex  2.500000e+000  1.750000e+001  4.500000e+001
      vertex  5.000000e-001  1.750000e+001  4.500000e+001
    endloop
  endfacet
  facet normal -2.230892e-001  0.000000e+000  9.747980e-001
    outer loop
      vertex  3.500000e+000 -1.650000e+001  4.700000e+001
      vertex  3.500000e+000  1.950000e+001  4.700000e+001
      vertex  3.282526e+000 -1.645023e+001  4.695023e+001
    endloop
  endfacet
  facet normal -2.230892e-001  0.000000e+000  9.747980e-001
    outer loop
      vertex  3.282526e+000 -1.645023e+001  4.695023e+001
      vertex  3.500000e+000  1.950000e+001  4.700000e+001
      vertex  3.282526e+000  1.945023e+001  4.695023e+001
    endloop
  endfacet
  facet normal -5.855858e-001  0.000000e+000  8.106105e-001
    outer loop
      vertex  3.282526e+000 -1.645023e+001  4.695023e+001
      vertex  3.282526e+000  1.945023e+001  4.695023e+001
      vertex  3.140906e+000 -1.634793e+001  4.684792e+001
    endloop
  endfacet
  facet normal -5.855858e-001  0.000000e+000  8.106105e-001
    outer loop
      vertex  3.140906e+000 -1.634793e+001  4.684792e+001
      vertex  3.282526e+000  1.945023e+001  4.695023e+001
      vertex  3.140906e+000  1.934792e+001  4.684792e+001
    endloop
  endfacet
  facet normal -8.944914e-001  0.000000e+000  4.470851e-001
    outer loop
      vertex  3.140906e+000 -1.634793e+001  4.684792e+001
      vertex  3.140906e+000  1.934792e+001  4.684792e+001
      vertex  3.006181e+000 -1.607838e+001  4.657838e+001
    endloop
  endfacet
  facet normal -8.944914e-001  0.000000e+000  4.470851e-001
    outer loop
      vertex  3.006181e+000 -1.607838e+001  4.657838e+001
      vertex  3.140906e+000  1.934792e+001  4.684792e+001
      vertex  3.006181e+000  1.907838e+001  4.657838e+001
    endloop
  endfacet
  facet normal -9.969043e-001  0.000000e+000  7.862460e-002
    outer loop
      vertex  3.006181e+000 -1.607838e+001  4.657838e+001
      vertex  3.006181e+000  1.907838e+001  4.657838e+001
      vertex  3.000000e+000 -1.600000e+001  4.650000e+001
    endloop
  endfacet
  facet normal -9.969043e-001  0.000000e+000  7.862461e-002
    outer loop
      vertex  3.000000e+000 -1.600000e+001  4.650000e+001
      vertex  3.006181e+000  1.907838e+001  4.657838e+001
      vertex  3.000000e+000  1.900000e+001  4.650000e+001
    endloop
  endfacet
  facet normal  0.000000e+000  9.999999e-001  0.000000e+000
    outer loop
      vertex  3.500000e+000  1.950000e+001  4.700000e+001
      vertex  4.500000e+000  1.950000e+001  4.700000e+001
      vertex  3.500000e+000  1.950000e+001 -4.700000e+001
    endloop
  endfacet
  facet normal  0.000000e+000  9.999999e-001  0.000000e+000
    outer loop
      vertex  3.500000e+000  1.950000e+001 -4.700000e+001
      vertex  4.500000e+000  1.950000e+001  4.700000e+001
      vertex  4.500000e+000  1.950000e+001 -4.700000e+001
    endloop
  endfacet
  facet normal  0.000000e+000  0.000000e+000  1.000000e+000
    outer loop
      vertex  3.500000e+000 -1.650000e+001  4.700000e+001
      vertex  4.500000e+000 -1.650000e+001  4.700000e+001
      vertex  3.500000e+000  1.950000e+001  4.700000e+001
    endloop
  endfacet
  facet normal  -0.000000e+000  0.000000e+000  1.000000e+000
    outer loop
      vertex  3.500000e+000  1.950000e+001  4.700000e+001
      vertex  4.500000e+000 -1.650000e+001  4.700000e+001
      vertex  4.500000e+000  1.950000e+001  4.700000e+001
    endloop
  endfacet
  facet normal -2.216307e-001  0.000000e+000  9.751307e-001
    outer loop
      vertex  5.000000e-001 -1.650000e+001  4.500000e+001
      vertex  5.000000e-001  1.750000e+001  4.500000e+001
      vertex  2.838737e-001 -1.645088e+001  4.495088e+001
    endloop
  endfacet
  facet normal -2.216307e-001  0.000000e+000  9.751307e-001
    outer loop
      vertex  2.838737e-001 -1.645088e+001  4.495088e+001
      vertex  5.000000e-001  1.750000e+001  4.500000e+001
      vertex  2.838737e-001  1.745088e+001  4.495088e+001
    endloop
  endfacet
  facet normal -6.070476e-001  0.000000e+000  7.946655e-001
    outer loop
      vertex  2.838737e-001 -1.645088e+001  4.495088e+001
      vertex  2.838737e-001  1.745088e+001  4.495088e+001
      vertex  1.218334e-001 -1.632709e+001  4.482710e+001
    endloop
  endfacet
  facet normal -6.070713e-001  1.801464e-007  7.946474e-001
    outer loop
      vertex  1.218334e-001 -1.632709e+001  4.482710e+001
      vertex  2.838737e-001  1.745088e+001  4.495088e+001
      vertex  1.218334e-001  1.732709e+001  4.482709e+001
    endloop
  endfacet
  facet normal -9.371060e-001  7.912838e-008  3.490448e-001
    outer loop
      vertex  1.218334e-001 -1.632709e+001  4.482710e+001
      vertex  1.218334e-001  1.732709e+001  4.482709e+001
      vertex  0.000000e+000 -1.600000e+001  4.450000e+001
    endloop
  endfacet
  facet normal -9.371034e-001  0.000000e+000  3.490519e-001
    outer loop
      vertex  0.000000e+000 -1.600000e+001  4.450000e+001
      vertex  1.218334e-001  1.732709e+001  4.482709e+001
      vertex  0.000000e+000  1.700000e+001  4.450000e+001
    endloop
  endfacet
  facet normal -1.000000e+000  0.000000e+000  0.000000e+000
    outer loop
      vertex  0.000000e+000 -1.600000e+001 -4.450000e+001
      vertex  0.000000e+000 -1.600000e+001  4.450000e+001
      vertex  0.000000e+000  1.700000e+001 -4.450000e+001
    endloop
  endfacet
  facet normal -1.000000e+000  0.000000e+000  0.000000e+000
    outer loop
      vertex  0.000000e+000  1.700000e+001 -4.450000e+001
      vertex  0.000000e+000 -1.600000e+001  4.450000e+001
      vertex  0.000000e+000  1.700000e+001  4.450000e+001
    endloop
  endfacet
  facet normal -2.216389e-001  9.751289e-001  0.000000e+000
    outer loop
      vertex  5.000000e-001  1.750000e+001  4.500000e+001
      vertex  5.000000e-001  1.750000e+001 -4.500000e+001
      vertex  2.838737e-001  1.745088e+001  4.495088e+001
    endloop
  endfacet
  facet normal -2.216389e-001  9.751288e-001  0.000000e+000
    outer loop
      vertex  2.838737e-001  1.745088e+001  4.495088e+001
      vertex  5.000000e-001  1.750000e+001 -4.500000e+001
      vertex  2.838737e-001  1.745088e+001 -4.495088e+001
    endloop
  endfacet
  facet normal -6.070476e-001  7.946655e-001  0.000000e+000
    outer loop
      vertex  2.838737e-001  1.745088e+001  4.495088e+001
      vertex  2.838737e-001  1.745088e+001 -4.495088e+001
      vertex  1.218334e-001  1.732709e+001  4.482709e+001
    endloop
  endfacet
  facet normal -6.070653e-001  7.946519e-001 -5.071749e-008
    outer loop
      vertex  1.218334e-001  1.732709e+001  4.482709e+001
      vertex  2.838737e-001  1.745088e+001 -4.495088e+001
      vertex  1.218334e-001  1.732709e+001 -4.482710e+001
    endloop
  endfacet
  facet normal -9.371054e-001  3.490466e-001 -2.227738e-008
    outer loop
      vertex  1.218334e-001  1.732709e+001  4.482709e+001
      vertex  1.218334e-001  1.732709e+001 -4.482710e+001
      vertex  0.000000e+000  1.700000e+001  4.450000e+001
    endloop
  endfacet
  facet normal -9.371034e-001  3.490519e-001  0.000000e+000
    outer loop
      vertex  0.000000e+000  1.700000e+001  4.450000e+001
      vertex  1.218334e-001  1.732709e+001 -4.482710e+001
      vertex  0.000000e+000  1.700000e+001 -4.450000e+001
    endloop
  endfacet
  facet normal  1.000000e+000  0.000000e+000  0.000000e+000
    outer loop
      vertex  5.000000e+000 -1.600000e+001 -4.650000e+001
      vertex  5.000000e+000  1.900000e+001 -4.650000e+001
      vertex  5.000000e+000 -1.600000e+001  4.650000e+001
    endloop
  endfacet
  facet normal  1.000000e+000  -0.000000e+000  0.000000e+000
    outer loop
      vertex  5.000000e+000 -1.600000e+001  4.650000e+001
      vertex  5.000000e+000  1.900000e+001 -4.650000e+001
      vertex  5.000000e+000  1.900000e+001  4.650000e+001
    endloop
  endfacet
  facet normal  9.527801e-001  3.036611e-001  -0.000000e+000
    outer loop
      vertex  5.000000e+000  1.900000e+001  4.650000e+001
      vertex  5.000000e+000  1.900000e+001 -4.650000e+001
      vertex  4.907791e+000  1.928932e+001  4.678932e+001
    endloop
  endfacet
  facet normal  9.527812e-001  3.036575e-001  1.237848e-008
    outer loop
      vertex  4.907791e+000  1.928932e+001  4.678932e+001
      vertex  5.000000e+000  1.900000e+001 -4.650000e+001
      vertex  4.907791e+000  1.928932e+001 -4.678932e+001
    endloop
  endfacet
  facet normal  7.043210e-001  7.098817e-001  2.893805e-008
    outer loop
      vertex  4.907791e+000  1.928932e+001  4.678932e+001
      vertex  4.907791e+000  1.928932e+001 -4.678932e+001
      vertex  4.786104e+000  1.941005e+001  4.691005e+001
    endloop
  endfacet
  facet normal  7.043098e-001  7.098927e-001  0.000000e+000
    outer loop
      vertex  4.786104e+000  1.941005e+001  4.691005e+001
      vertex  4.907791e+000  1.928932e+001 -4.678932e+001
      vertex  4.786104e+000  1.941005e+001 -4.691005e+001
    endloop
  endfacet
  facet normal  3.584130e-001  9.335631e-001  -0.000000e+000
    outer loop
      vertex  4.786104e+000  1.941005e+001  4.691005e+001
      vertex  4.786104e+000  1.941005e+001 -4.691005e+001
      vertex  4.561810e+000  1.949616e+001  4.699617e+001
    endloop
  endfacet
  facet normal  3.584130e-001  9.335632e-001  0.000000e+000
    outer loop
      vertex  4.561810e+000  1.949616e+001  4.699617e+001
      vertex  4.786104e+000  1.941005e+001 -4.691005e+001
      vertex  4.561810e+000  1.949616e+001 -4.699617e+001
    endloop
  endfacet
  facet normal  6.193727e-002  9.980801e-001  -0.000000e+000
    outer loop
      vertex  4.561810e+000  1.949616e+001  4.699617e+001
      vertex  4.561810e+000  1.949616e+001 -4.699617e+001
      vertex  4.500000e+000  1.950000e+001  4.700000e+001
    endloop
  endfacet
  facet normal  6.193726e-002  9.980800e-001  0.000000e+000
    outer loop
      vertex  4.500000e+000  1.950000e+001  4.700000e+001
      vertex  4.561810e+000  1.949616e+001 -4.699617e+001
      vertex  4.500000e+000  1.950000e+001 -4.700000e+001
    endloop
  endfacet
  facet normal  9.527807e-001  0.000000e+000 -3.036593e-001
    outer loop
      vertex  5.000000e+000  1.900000e+001 -4.650000e+001
      vertex  5.000000e+000 -1.600000e+001 -4.650000e+001
      vertex  4.907791e+000  1.928932e+001 -4.678932e+001
    endloop
  endfacet
  facet normal  9.527808e-001  0.000000e+000 -3.036593e-001
    outer loop
      vertex  4.907791e+000  1.928932e+001 -4.678932e+001
      vertex  5.000000e+000 -1.600000e+001 -4.650000e+001
      vertex  4.907791e+000 -1.628932e+001 -4.678932e+001
    endloop
  endfacet
  facet normal  7.043154e-001  0.000000e+000 -7.098873e-001
    outer loop
      vertex  4.907791e+000  1.928932e+001 -4.678932e+001
      vertex  4.907791e+000 -1.628932e+001 -4.678932e+001
      vertex  4.786104e+000  1.941005e+001 -4.691005e+001
    endloop
  endfacet
  facet normal  7.043154e-001  0.000000e+000 -7.098873e-001
    outer loop
      vertex  4.786104e+000  1.941005e+001 -4.691005e+001
      vertex  4.907791e+000 -1.628932e+001 -4.678932e+001
      vertex  4.786104e+000 -1.641005e+001 -4.691005e+001
    endloop
  endfacet
  facet normal  3.584199e-001  0.000000e+000 -9.335605e-001
    outer loop
      vertex  4.786104e+000  1.941005e+001 -4.691005e+001
      vertex  4.786104e+000 -1.641005e+001 -4.691005e+001
      vertex  4.561810e+000  1.949616e+001 -4.699617e+001
    endloop
  endfacet
  facet normal  3.584199e-001  0.000000e+000 -9.335604e-001
    outer loop
      vertex  4.561810e+000  1.949616e+001 -4.699617e+001
      vertex  4.786104e+000 -1.641005e+001 -4.691005e+001
      vertex  4.561810e+000 -1.649616e+001 -4.699617e+001
    endloop
  endfacet
  facet normal  6.190658e-002  0.000000e+000 -9.980819e-001
    outer loop
      vertex  4.561810e+000  1.949616e+001 -4.699617e+001
      vertex  4.561810e+000 -1.649616e+001 -4.699617e+001
      vertex  4.500000e+000  1.950000e+001 -4.700000e+001
    endloop
  endfacet
  facet normal  6.190659e-002  0.000000e+000 -9.980820e-001
    outer loop
      vertex  4.500000e+000  1.950000e+001 -4.700000e+001
      vertex  4.561810e+000 -1.649616e+001 -4.699617e+001
      vertex  4.500000e+000 -1.650000e+001 -4.700000e+001
    endloop
  endfacet
  facet normal  9.527801e-001 -3.036611e-001  0.000000e+000
    outer loop
      vertex  5.000000e+000 -1.600000e+001 -4.650000e+001
      vertex  5.000000e+000 -1.600000e+001  4.650000e+001
      vertex  4.907791e+000 -1.628932e+001 -4.678932e+001
    endloop
  endfacet
  facet normal  9.527812e-001 -3.036575e-001 -1.237848e-008
    outer loop
      vertex  4.907791e+000 -1.628932e+001 -4.678932e+001
      vertex  5.000000e+000 -1.600000e+001  4.650000e+001
      vertex  4.907791e+000 -1.628932e+001  4.678932e+001
    endloop
  endfacet
  facet normal  7.043210e-001 -7.098817e-001 -2.893805e-008
    outer loop
      vertex  4.907791e+000 -1.628932e+001 -4.678932e+001
      vertex  4.907791e+000 -1.628932e+001  4.678932e+001
      vertex  4.786104e+000 -1.641005e+001 -4.691005e+001
    endloop
  endfacet
  facet normal  7.043098e-001 -7.098927e-001  0.000000e+000
    outer loop
      vertex  4.786104e+000 -1.641005e+001 -4.691005e+001
      vertex  4.907791e+000 -1.628932e+001  4.678932e+001
      vertex  4.786104e+000 -1.641005e+001  4.691005e+001
    endloop
  endfacet
  facet normal  3.584130e-001 -9.335631e-001  0.000000e+000
    outer loop
      vertex  4.786104e+000 -1.641005e+001 -4.691005e+001
      vertex  4.786104e+000 -1.641005e+001  4.691005e+001
      vertex  4.561810e+000 -1.649616e+001 -4.699617e+001
    endloop
  endfacet
  facet normal  3.584130e-001 -9.335632e-001  0.000000e+000
    outer loop
      vertex  4.561810e+000 -1.649616e+001 -4.699617e+001
      vertex  4.786104e+000 -1.641005e+001  4.691005e+001
      vertex  4.561810e+000 -1.649616e+001  4.699617e+001
    endloop
  endfacet
  facet normal  6.193727e-002 -9.980801e-001  0.000000e+000
    outer loop
      vertex  4.561810e+000 -1.649616e+001 -4.699617e+001
      vertex  4.561810e+000 -1.649616e+001  4.699617e+001
      vertex  4.500000e+000 -1.650000e+001 -4.700000e+001
    endloop
  endfacet
  facet normal  6.193726e-002 -9.980800e-001  0.000000e+000
    outer loop
      vertex  4.500000e+000 -1.650000e+001 -4.700000e+001
      vertex  4.561810e+000 -1.649616e+001  4.699617e+001
      vertex  4.500000e+000 -1.650000e+001  4.700000e+001
    endloop
  endfacet
  facet normal  9.527807e-001  0.000000e+000  3.036593e-001
    outer loop
      vertex  5.000000e+000 -1.600000e+001  4.650000e+001
      vertex  5.000000e+000  1.900000e+001  4.650000e+001
      vertex  4.907791e+000 -1.628932e+001  4.678932e+001
    endloop
  endfacet
  facet normal  9.527808e-001  -0.000000e+000  3.036593e-001
    outer loop
      vertex  4.907791e+000 -1.628932e+001  4.678932e+001
      vertex  5.000000e+000  1.900000e+001  4.650000e+001
      vertex  4.907791e+000  1.928932e+001  4.678932e+001
    endloop
  endfacet
  facet normal  7.043154e-001  0.000000e+000  7.098873e-001
    outer loop
      vertex  4.907791e+000 -1.628932e+001  4.678932e+001
      vertex  4.907791e+000  1.928932e+001  4.678932e+001
      vertex  4.786104e+000 -1.641005e+001  4.691005e+001
    endloop
  endfacet
  facet normal  7.043154e-001  -0.000000e+000  7.098873e-001
    outer loop
      vertex  4.786104e+000 -1.641005e+001  4.691005e+001
      vertex  4.907791e+000  1.928932e+001  4.678932e+001
      vertex  4.786104e+000  1.941005e+001  4.691005e+001
    endloop
  endfacet
  facet normal  3.584199e-001  0.000000e+000  9.335605e-001
    outer loop
      vertex  4.786104e+000 -1.641005e+001  4.691005e+001
      vertex  4.786104e+000  1.941005e+001  4.691005e+001
      vertex  4.561810e+000 -1.649616e+001  4.699617e+001
    endloop
  endfacet
  facet normal  3.584199e-001  -0.000000e+000  9.335604e-001
    outer loop
      vertex  4.561810e+000 -1.649616e+001  4.699617e+001
      vertex  4.786104e+000  1.941005e+001  4.691005e+001
      vertex  4.561810e+000  1.949616e+001  4.699617e+001
    endloop
  endfacet
  facet normal  6.190658e-002  0.000000e+000  9.980819e-001
    outer loop
      vertex  4.561810e+000 -1.649616e+001  4.699617e+001
      vertex  4.561810e+000  1.949616e+001  4.699617e+001
      vertex  4.500000e+000 -1.650000e+001  4.700000e+001
    endloop
  endfacet
  facet normal  6.190659e-002  -0.000000e+000  9.980820e-001
    outer loop
      vertex  4.500000e+000 -1.650000e+001  4.700000e+001
      vertex  4.561810e+000  1.949616e+001  4.699617e+001
      vertex  4.500000e+000  1.950000e+001  4.700000e+001
    endloop
  endfacet
endsolid CATIA STL
