solid CATIA STL
  facet normal  1.000000e+000  0.000000e+000  0.000000e+000
    outer loop
      vertex  6.000000e+000 -5.500000e+001  5.500000e+001
      vertex  6.000000e+000 -5.500000e+001 -5.500000e+001
      vertex  6.000000e+000 -4.521676e+001  8.452477e+000
    endloop
  endfacet
  facet normal  1.000000e+000  0.000000e+000  -0.000000e+000
    outer loop
      vertex  6.000000e+000 -5.500000e+001  5.500000e+001
      vertex  6.000000e+000 -4.521676e+001  8.452477e+000
      vertex  6.000000e+000 -4.289372e+001  1.661712e+001
    endloop
  endfacet
  facet normal  1.000000e+000  0.000000e+000  -0.000000e+000
    outer loop
      vertex  6.000000e+000 -5.500000e+001  5.500000e+001
      vertex  6.000000e+000 -4.289372e+001  1.661712e+001
      vertex  6.000000e+000 -3.910999e+001  2.421588e+001
    endloop
  endfacet
  facet normal  1.000000e+000  0.000000e+000  -0.000000e+000
    outer loop
      vertex  6.000000e+000 -5.500000e+001  5.500000e+001
      vertex  6.000000e+000 -3.910999e+001  2.421588e+001
      vertex  6.000000e+000 -3.399441e+001  3.099000e+001
    endloop
  endfacet
  facet normal  1.000000e+000  0.000000e+000  -0.000000e+000
    outer loop
      vertex  6.000000e+000 -5.500000e+001  5.500000e+001
      vertex  6.000000e+000 -3.399441e+001  3.099000e+001
      vertex  6.000000e+000 -2.772119e+001  3.670879e+001
    endloop
  endfacet
  facet normal  1.000000e+000  0.000000e+000  -0.000000e+000
    outer loop
      vertex  6.000000e+000 -5.500000e+001  5.500000e+001
      vertex  6.000000e+000 -2.772119e+001  3.670879e+001
      vertex  6.000000e+000 -2.050396e+001  4.117751e+001
    endloop
  endfacet
  facet normal  1.000000e+000  0.000000e+000  -0.000000e+000
    outer loop
      vertex  6.000000e+000 -5.500000e+001  5.500000e+001
      vertex  6.000000e+000 -2.050396e+001  4.117751e+001
      vertex  6.000000e+000 -1.258850e+001  4.424398e+001
    endloop
  endfacet
  facet normal  9.999999e-001  0.000000e+000  -0.000000e+000
    outer loop
      vertex  6.000000e+000 -5.500000e+001  5.500000e+001
      vertex  6.000000e+000 -1.258850e+001  4.424398e+001
      vertex  6.000000e+000 -4.244345e+000  4.580377e+001
    endloop
  endfacet
  facet normal  1.000000e+000  0.000000e+000  -0.000000e+000
    outer loop
      vertex  6.000000e+000 -5.500000e+001  5.500000e+001
      vertex  6.000000e+000 -4.244345e+000  4.580377e+001
      vertex  6.000000e+000  4.244345e+000  4.580377e+001
    endloop
  endfacet
  facet normal  1.000000e+000  0.000000e+000  -0.000000e+000
    outer loop
      vertex  6.000000e+000 -5.500000e+001  5.500000e+001
      vertex  6.000000e+000  4.244345e+000  4.580377e+001
      vertex  6.000000e+000  5.500000e+001  5.500000e+001
    endloop
  endfacet
  facet normal  1.000000e+000  0.000000e+000  0.000000e+000
    outer loop
      vertex  6.000000e+000 -5.500000e+001 -5.500000e+001
      vertex  6.000000e+000  5.500000e+001 -5.500000e+001
      vertex  6.000000e+000  4.244345e+000 -4.580377e+001
    endloop
  endfacet
  facet normal  1.000000e+000  0.000000e+000  0.000000e+000
    outer loop
      vertex  6.000000e+000 -5.500000e+001 -5.500000e+001
      vertex  6.000000e+000  4.244345e+000 -4.580377e+001
      vertex  6.000000e+000 -4.244345e+000 -4.580377e+001
    endloop
  endfacet
  facet normal  9.999999e-001  0.000000e+000  0.000000e+000
    outer loop
      vertex  6.000000e+000 -5.500000e+001 -5.500000e+001
      vertex  6.000000e+000 -4.244345e+000 -4.580377e+001
      vertex  6.000000e+000 -1.258850e+001 -4.424398e+001
    endloop
  endfacet
  facet normal  1.000000e+000  0.000000e+000  0.000000e+000
    outer loop
      vertex  6.000000e+000 -5.500000e+001 -5.500000e+001
      vertex  6.000000e+000 -1.258850e+001 -4.424398e+001
      vertex  6.000000e+000 -2.050396e+001 -4.117751e+001
    endloop
  endfacet
  facet normal  1.000000e+000  0.000000e+000  0.000000e+000
    outer loop
      vertex  6.000000e+000 -5.500000e+001 -5.500000e+001
      vertex  6.000000e+000 -2.050396e+001 -4.117751e+001
      vertex  6.000000e+000 -2.772119e+001 -3.670879e+001
    endloop
  endfacet
  facet normal  1.000000e+000  0.000000e+000  0.000000e+000
    outer loop
      vertex  6.000000e+000 -5.500000e+001 -5.500000e+001
      vertex  6.000000e+000 -2.772119e+001 -3.670879e+001
      vertex  6.000000e+000 -3.399441e+001 -3.099000e+001
    endloop
  endfacet
  facet normal  1.000000e+000  0.000000e+000  0.000000e+000
    outer loop
      vertex  6.000000e+000 -5.500000e+001 -5.500000e+001
      vertex  6.000000e+000 -3.399441e+001 -3.099000e+001
      vertex  6.000000e+000 -3.910999e+001 -2.421588e+001
    endloop
  endfacet
  facet normal  1.000000e+000  0.000000e+000  0.000000e+000
    outer loop
      vertex  6.000000e+000 -5.500000e+001 -5.500000e+001
      vertex  6.000000e+000 -3.910999e+001 -2.421588e+001
      vertex  6.000000e+000 -4.289372e+001 -1.661712e+001
    endloop
  endfacet
  facet normal  1.000000e+000  0.000000e+000  0.000000e+000
    outer loop
      vertex  6.000000e+000 -5.500000e+001 -5.500000e+001
      vertex  6.000000e+000 -4.289372e+001 -1.661712e+001
      vertex  6.000000e+000 -4.521676e+001 -8.452477e+000
    endloop
  endfacet
  facet normal  1.000000e+000  0.000000e+000  0.000000e+000
    outer loop
      vertex  6.000000e+000 -5.500000e+001 -5.500000e+001
      vertex  6.000000e+000 -4.521676e+001 -8.452477e+000
      vertex  6.000000e+000 -4.600000e+001  5.633189e-015
    endloop
  endfacet
  facet normal  1.000000e+000  0.000000e+000  -0.000000e+000
    outer loop
      vertex  6.000000e+000 -5.500000e+001 -5.500000e+001
      vertex  6.000000e+000 -4.600000e+001  5.633189e-015
      vertex  6.000000e+000 -4.521676e+001  8.452477e+000
    endloop
  endfacet
  facet normal  1.000000e+000  0.000000e+000  0.000000e+000
    outer loop
      vertex  6.000000e+000  5.500000e+001 -5.500000e+001
      vertex  6.000000e+000  4.521676e+001  8.452477e+000
      vertex  6.000000e+000  4.600000e+001  0.000000e+000
    endloop
  endfacet
  facet normal  1.000000e+000  0.000000e+000  0.000000e+000
    outer loop
      vertex  6.000000e+000  5.500000e+001 -5.500000e+001
      vertex  6.000000e+000  4.600000e+001  0.000000e+000
      vertex  6.000000e+000  4.521676e+001 -8.452477e+000
    endloop
  endfacet
  facet normal  1.000000e+000  0.000000e+000  0.000000e+000
    outer loop
      vertex  6.000000e+000  5.500000e+001 -5.500000e+001
      vertex  6.000000e+000  4.521676e+001 -8.452477e+000
      vertex  6.000000e+000  4.289372e+001 -1.661712e+001
    endloop
  endfacet
  facet normal  1.000000e+000  0.000000e+000  0.000000e+000
    outer loop
      vertex  6.000000e+000  5.500000e+001 -5.500000e+001
      vertex  6.000000e+000  4.289372e+001 -1.661712e+001
      vertex  6.000000e+000  3.910999e+001 -2.421588e+001
    endloop
  endfacet
  facet normal  1.000000e+000  0.000000e+000  0.000000e+000
    outer loop
      vertex  6.000000e+000  5.500000e+001 -5.500000e+001
      vertex  6.000000e+000  3.910999e+001 -2.421588e+001
      vertex  6.000000e+000  3.399441e+001 -3.099000e+001
    endloop
  endfacet
  facet normal  1.000000e+000  0.000000e+000  0.000000e+000
    outer loop
      vertex  6.000000e+000  5.500000e+001 -5.500000e+001
      vertex  6.000000e+000  3.399441e+001 -3.099000e+001
      vertex  6.000000e+000  2.772119e+001 -3.670879e+001
    endloop
  endfacet
  facet normal  1.000000e+000  0.000000e+000  0.000000e+000
    outer loop
      vertex  6.000000e+000  5.500000e+001 -5.500000e+001
      vertex  6.000000e+000  2.772119e+001 -3.670879e+001
      vertex  6.000000e+000  2.050396e+001 -4.117751e+001
    endloop
  endfacet
  facet normal  1.000000e+000  0.000000e+000  0.000000e+000
    outer loop
      vertex  6.000000e+000  5.500000e+001 -5.500000e+001
      vertex  6.000000e+000  2.050396e+001 -4.117751e+001
      vertex  6.000000e+000  1.258850e+001 -4.424398e+001
    endloop
  endfacet
  facet normal  9.999999e-001  0.000000e+000  0.000000e+000
    outer loop
      vertex  6.000000e+000  5.500000e+001 -5.500000e+001
      vertex  6.000000e+000  1.258850e+001 -4.424398e+001
      vertex  6.000000e+000  4.244345e+000 -4.580377e+001
    endloop
  endfacet
  facet normal  9.999999e-001  -0.000000e+000  0.000000e+000
    outer loop
      vertex  6.000000e+000  5.500000e+001  5.500000e+001
      vertex  6.000000e+000  4.244345e+000  4.580377e+001
      vertex  6.000000e+000  1.258850e+001  4.424398e+001
    endloop
  endfacet
  facet normal  1.000000e+000  -0.000000e+000  0.000000e+000
    outer loop
      vertex  6.000000e+000  5.500000e+001  5.500000e+001
      vertex  6.000000e+000  1.258850e+001  4.424398e+001
      vertex  6.000000e+000  2.050396e+001  4.117751e+001
    endloop
  endfacet
  facet normal  1.000000e+000  -0.000000e+000  0.000000e+000
    outer loop
      vertex  6.000000e+000  5.500000e+001  5.500000e+001
      vertex  6.000000e+000  2.050396e+001  4.117751e+001
      vertex  6.000000e+000  2.772119e+001  3.670879e+001
    endloop
  endfacet
  facet normal  1.000000e+000  -0.000000e+000  0.000000e+000
    outer loop
      vertex  6.000000e+000  5.500000e+001  5.500000e+001
      vertex  6.000000e+000  2.772119e+001  3.670879e+001
      vertex  6.000000e+000  3.399441e+001  3.099000e+001
    endloop
  endfacet
  facet normal  1.000000e+000  -0.000000e+000  0.000000e+000
    outer loop
      vertex  6.000000e+000  5.500000e+001  5.500000e+001
      vertex  6.000000e+000  3.399441e+001  3.099000e+001
      vertex  6.000000e+000  3.910999e+001  2.421588e+001
    endloop
  endfacet
  facet normal  1.000000e+000  -0.000000e+000  0.000000e+000
    outer loop
      vertex  6.000000e+000  5.500000e+001  5.500000e+001
      vertex  6.000000e+000  3.910999e+001  2.421588e+001
      vertex  6.000000e+000  4.289372e+001  1.661712e+001
    endloop
  endfacet
  facet normal  1.000000e+000  -0.000000e+000  0.000000e+000
    outer loop
      vertex  6.000000e+000  5.500000e+001  5.500000e+001
      vertex  6.000000e+000  4.289372e+001  1.661712e+001
      vertex  6.000000e+000  4.521676e+001  8.452477e+000
    endloop
  endfacet
  facet normal  1.000000e+000  -0.000000e+000  0.000000e+000
    outer loop
      vertex  6.000000e+000  5.500000e+001  5.500000e+001
      vertex  6.000000e+000  4.521676e+001  8.452477e+000
      vertex  6.000000e+000  5.500000e+001 -5.500000e+001
    endloop
  endfacet
  facet normal  0.000000e+000  1.000000e+000  -0.000000e+000
    outer loop
      vertex  1.000000e+000  6.000000e+001  6.000000e+001
      vertex  1.000000e+000  6.000000e+001 -6.000000e+001
      vertex  0.000000e+000  6.000000e+001  6.000000e+001
    endloop
  endfacet
  facet normal  0.000000e+000  1.000000e+000  0.000000e+000
    outer loop
      vertex  0.000000e+000  6.000000e+001  6.000000e+001
      vertex  1.000000e+000  6.000000e+001 -6.000000e+001
      vertex  0.000000e+000  6.000000e+001 -6.000000e+001
    endloop
  endfacet
  facet normal  0.000000e+000  0.000000e+000 -1.000000e+000
    outer loop
      vertex  1.000000e+000  6.000000e+001 -6.000000e+001
      vertex  1.000000e+000 -6.000000e+001 -6.000000e+001
      vertex  0.000000e+000  6.000000e+001 -6.000000e+001
    endloop
  endfacet
  facet normal  0.000000e+000  0.000000e+000 -1.000000e+000
    outer loop
      vertex  0.000000e+000  6.000000e+001 -6.000000e+001
      vertex  1.000000e+000 -6.000000e+001 -6.000000e+001
      vertex  0.000000e+000 -6.000000e+001 -6.000000e+001
    endloop
  endfacet
  facet normal  0.000000e+000 -1.000000e+000  -0.000000e+000
    outer loop
      vertex  1.000000e+000 -6.000000e+001 -6.000000e+001
      vertex  1.000000e+000 -6.000000e+001  6.000000e+001
      vertex  0.000000e+000 -6.000000e+001 -6.000000e+001
    endloop
  endfacet
  facet normal  0.000000e+000 -1.000000e+000  0.000000e+000
    outer loop
      vertex  0.000000e+000 -6.000000e+001 -6.000000e+001
      vertex  1.000000e+000 -6.000000e+001  6.000000e+001
      vertex  0.000000e+000 -6.000000e+001  6.000000e+001
    endloop
  endfacet
  facet normal  0.000000e+000  0.000000e+000  1.000000e+000
    outer loop
      vertex  1.000000e+000 -6.000000e+001  6.000000e+001
      vertex  1.000000e+000  6.000000e+001  6.000000e+001
      vertex  0.000000e+000 -6.000000e+001  6.000000e+001
    endloop
  endfacet
  facet normal  0.000000e+000  0.000000e+000  1.000000e+000
    outer loop
      vertex  0.000000e+000 -6.000000e+001  6.000000e+001
      vertex  1.000000e+000  6.000000e+001  6.000000e+001
      vertex  0.000000e+000  6.000000e+001  6.000000e+001
    endloop
  endfacet
  facet normal  9.715604e-001  0.000000e+000  2.367919e-001
    outer loop
      vertex  6.000000e+000 -5.500000e+001  5.500000e+001
      vertex  6.000000e+000  5.500000e+001  5.500000e+001
      vertex  5.439296e+000 -5.730058e+001  5.730058e+001
    endloop
  endfacet
  facet normal  9.715603e-001  -0.000000e+000  2.367919e-001
    outer loop
      vertex  5.439296e+000 -5.730058e+001  5.730058e+001
      vertex  6.000000e+000  5.500000e+001  5.500000e+001
      vertex  5.439296e+000  5.730058e+001  5.730058e+001
    endloop
  endfacet
  facet normal  8.073978e-001  0.000000e+000  5.900075e-001
    outer loop
      vertex  5.439296e+000 -5.730058e+001  5.730058e+001
      vertex  5.439296e+000  5.730058e+001  5.730058e+001
      vertex  4.540427e+000 -5.853063e+001  5.853064e+001
    endloop
  endfacet
  facet normal  8.073969e-001  1.922672e-008  5.900086e-001
    outer loop
      vertex  4.540427e+000 -5.853063e+001  5.853064e+001
      vertex  5.439296e+000  5.730058e+001  5.730058e+001
      vertex  4.540427e+000  5.853064e+001  5.853063e+001
    endloop
  endfacet
  facet normal  5.784972e-001  2.658086e-008  8.156844e-001
    outer loop
      vertex  4.540427e+000 -5.853063e+001  5.853064e+001
      vertex  4.540427e+000  5.853064e+001  5.853063e+001
      vertex  3.161263e+000 -5.950876e+001  5.950876e+001
    endloop
  endfacet
  facet normal  5.784987e-001  -0.000000e+000  8.156833e-001
    outer loop
      vertex  3.161263e+000 -5.950876e+001  5.950876e+001
      vertex  4.540427e+000  5.853064e+001  5.853063e+001
      vertex  3.161263e+000  5.950876e+001  5.950876e+001
    endloop
  endfacet
  facet normal  2.216389e-001  0.000000e+000  9.751288e-001
    outer loop
      vertex  3.161263e+000 -5.950876e+001  5.950876e+001
      vertex  3.161263e+000  5.950876e+001  5.950876e+001
      vertex  1.000000e+000 -6.000000e+001  6.000000e+001
    endloop
  endfacet
  facet normal  2.216389e-001  -0.000000e+000  9.751288e-001
    outer loop
      vertex  1.000000e+000 -6.000000e+001  6.000000e+001
      vertex  3.161263e+000  5.950876e+001  5.950876e+001
      vertex  1.000000e+000  6.000000e+001  6.000000e+001
    endloop
  endfacet
  facet normal  9.715604e-001  2.367919e-001  -0.000000e+000
    outer loop
      vertex  6.000000e+000  5.500000e+001  5.500000e+001
      vertex  6.000000e+000  5.500000e+001 -5.500000e+001
      vertex  5.439296e+000  5.730058e+001  5.730058e+001
    endloop
  endfacet
  facet normal  9.715603e-001  2.367919e-001  0.000000e+000
    outer loop
      vertex  5.439296e+000  5.730058e+001  5.730058e+001
      vertex  6.000000e+000  5.500000e+001 -5.500000e+001
      vertex  5.439296e+000  5.730058e+001 -5.730058e+001
    endloop
  endfacet
  facet normal  8.073978e-001  5.900075e-001  -0.000000e+000
    outer loop
      vertex  5.439296e+000  5.730058e+001  5.730058e+001
      vertex  5.439296e+000  5.730058e+001 -5.730058e+001
      vertex  4.540427e+000  5.853064e+001  5.853063e+001
    endloop
  endfacet
  facet normal  8.073969e-001  5.900086e-001 -1.922672e-008
    outer loop
      vertex  4.540427e+000  5.853064e+001  5.853063e+001
      vertex  5.439296e+000  5.730058e+001 -5.730058e+001
      vertex  4.540427e+000  5.853063e+001 -5.853064e+001
    endloop
  endfacet
  facet normal  5.784972e-001  8.156844e-001 -2.658086e-008
    outer loop
      vertex  4.540427e+000  5.853064e+001  5.853063e+001
      vertex  4.540427e+000  5.853063e+001 -5.853064e+001
      vertex  3.161263e+000  5.950876e+001  5.950876e+001
    endloop
  endfacet
  facet normal  5.784987e-001  8.156833e-001  0.000000e+000
    outer loop
      vertex  3.161263e+000  5.950876e+001  5.950876e+001
      vertex  4.540427e+000  5.853063e+001 -5.853064e+001
      vertex  3.161263e+000  5.950876e+001 -5.950876e+001
    endloop
  endfacet
  facet normal  2.216389e-001  9.751288e-001  -0.000000e+000
    outer loop
      vertex  3.161263e+000  5.950876e+001  5.950876e+001
      vertex  3.161263e+000  5.950876e+001 -5.950876e+001
      vertex  1.000000e+000  6.000000e+001  6.000000e+001
    endloop
  endfacet
  facet normal  2.216389e-001  9.751288e-001  0.000000e+000
    outer loop
      vertex  1.000000e+000  6.000000e+001  6.000000e+001
      vertex  3.161263e+000  5.950876e+001 -5.950876e+001
      vertex  1.000000e+000  6.000000e+001 -6.000000e+001
    endloop
  endfacet
  facet normal  9.715604e-001  0.000000e+000 -2.367919e-001
    outer loop
      vertex  6.000000e+000  5.500000e+001 -5.500000e+001
      vertex  6.000000e+000 -5.500000e+001 -5.500000e+001
      vertex  5.439296e+000  5.730058e+001 -5.730058e+001
    endloop
  endfacet
  facet normal  9.715603e-001  0.000000e+000 -2.367919e-001
    outer loop
      vertex  5.439296e+000  5.730058e+001 -5.730058e+001
      vertex  6.000000e+000 -5.500000e+001 -5.500000e+001
      vertex  5.439296e+000 -5.730058e+001 -5.730058e+001
    endloop
  endfacet
  facet normal  8.073978e-001  0.000000e+000 -5.900075e-001
    outer loop
      vertex  5.439296e+000  5.730058e+001 -5.730058e+001
      vertex  5.439296e+000 -5.730058e+001 -5.730058e+001
      vertex  4.540427e+000  5.853063e+001 -5.853064e+001
    endloop
  endfacet
  facet normal  8.073969e-001 -1.922672e-008 -5.900086e-001
    outer loop
      vertex  4.540427e+000  5.853063e+001 -5.853064e+001
      vertex  5.439296e+000 -5.730058e+001 -5.730058e+001
      vertex  4.540427e+000 -5.853064e+001 -5.853063e+001
    endloop
  endfacet
  facet normal  5.784972e-001 -2.658086e-008 -8.156844e-001
    outer loop
      vertex  4.540427e+000  5.853063e+001 -5.853064e+001
      vertex  4.540427e+000 -5.853064e+001 -5.853063e+001
      vertex  3.161263e+000  5.950876e+001 -5.950876e+001
    endloop
  endfacet
  facet normal  5.784987e-001  0.000000e+000 -8.156833e-001
    outer loop
      vertex  3.161263e+000  5.950876e+001 -5.950876e+001
      vertex  4.540427e+000 -5.853064e+001 -5.853063e+001
      vertex  3.161263e+000 -5.950876e+001 -5.950876e+001
    endloop
  endfacet
  facet normal  2.216389e-001  0.000000e+000 -9.751288e-001
    outer loop
      vertex  3.161263e+000  5.950876e+001 -5.950876e+001
      vertex  3.161263e+000 -5.950876e+001 -5.950876e+001
      vertex  1.000000e+000  6.000000e+001 -6.000000e+001
    endloop
  endfacet
  facet normal  2.216389e-001  0.000000e+000 -9.751288e-001
    outer loop
      vertex  1.000000e+000  6.000000e+001 -6.000000e+001
      vertex  3.161263e+000 -5.950876e+001 -5.950876e+001
      vertex  1.000000e+000 -6.000000e+001 -6.000000e+001
    endloop
  endfacet
  facet normal  9.715604e-001 -2.367919e-001  0.000000e+000
    outer loop
      vertex  6.000000e+000 -5.500000e+001 -5.500000e+001
      vertex  6.000000e+000 -5.500000e+001  5.500000e+001
      vertex  5.439296e+000 -5.730058e+001 -5.730058e+001
    endloop
  endfacet
  facet normal  9.715603e-001 -2.367919e-001  0.000000e+000
    outer loop
      vertex  5.439296e+000 -5.730058e+001 -5.730058e+001
      vertex  6.000000e+000 -5.500000e+001  5.500000e+001
      vertex  5.439296e+000 -5.730058e+001  5.730058e+001
    endloop
  endfacet
  facet normal  8.073978e-001 -5.900075e-001  0.000000e+000
    outer loop
      vertex  5.439296e+000 -5.730058e+001 -5.730058e+001
      vertex  5.439296e+000 -5.730058e+001  5.730058e+001
      vertex  4.540427e+000 -5.853064e+001 -5.853063e+001
    endloop
  endfacet
  facet normal  8.073969e-001 -5.900086e-001  1.922672e-008
    outer loop
      vertex  4.540427e+000 -5.853064e+001 -5.853063e+001
      vertex  5.439296e+000 -5.730058e+001  5.730058e+001
      vertex  4.540427e+000 -5.853063e+001  5.853064e+001
    endloop
  endfacet
  facet normal  5.784972e-001 -8.156844e-001  2.658086e-008
    outer loop
      vertex  4.540427e+000 -5.853064e+001 -5.853063e+001
      vertex  4.540427e+000 -5.853063e+001  5.853064e+001
      vertex  3.161263e+000 -5.950876e+001 -5.950876e+001
    endloop
  endfacet
  facet normal  5.784987e-001 -8.156833e-001  0.000000e+000
    outer loop
      vertex  3.161263e+000 -5.950876e+001 -5.950876e+001
      vertex  4.540427e+000 -5.853063e+001  5.853064e+001
      vertex  3.161263e+000 -5.950876e+001  5.950876e+001
    endloop
  endfacet
  facet normal  2.216389e-001 -9.751288e-001  0.000000e+000
    outer loop
      vertex  3.161263e+000 -5.950876e+001 -5.950876e+001
      vertex  3.161263e+000 -5.950876e+001  5.950876e+001
      vertex  1.000000e+000 -6.000000e+001 -6.000000e+001
    endloop
  endfacet
  facet normal  2.216389e-001 -9.751288e-001  0.000000e+000
    outer loop
      vertex  1.000000e+000 -6.000000e+001 -6.000000e+001
      vertex  3.161263e+000 -5.950876e+001  5.950876e+001
      vertex  1.000000e+000 -6.000000e+001  6.000000e+001
    endloop
  endfacet
  facet normal -1.000000e+000  -0.000000e+000  0.000000e+000
    outer loop
      vertex  0.000000e+000 -6.000000e+001  6.000000e+001
      vertex  0.000000e+000  6.000000e+001  6.000000e+001
      vertex  0.000000e+000  4.244345e+000  4.580377e+001
    endloop
  endfacet
  facet normal -1.000000e+000  0.000000e+000  0.000000e+000
    outer loop
      vertex  0.000000e+000 -6.000000e+001  6.000000e+001
      vertex  0.000000e+000  4.244345e+000  4.580377e+001
      vertex  0.000000e+000 -4.244345e+000  4.580377e+001
    endloop
  endfacet
  facet normal -1.000000e+000  -0.000000e+000  0.000000e+000
    outer loop
      vertex  0.000000e+000 -6.000000e+001  6.000000e+001
      vertex  0.000000e+000 -4.244345e+000  4.580377e+001
      vertex  0.000000e+000 -1.258850e+001  4.424398e+001
    endloop
  endfacet
  facet normal -1.000000e+000  -0.000000e+000  0.000000e+000
    outer loop
      vertex  0.000000e+000 -6.000000e+001  6.000000e+001
      vertex  0.000000e+000 -1.258850e+001  4.424398e+001
      vertex  0.000000e+000 -2.050396e+001  4.117751e+001
    endloop
  endfacet
  facet normal -1.000000e+000  -0.000000e+000  0.000000e+000
    outer loop
      vertex  0.000000e+000 -6.000000e+001  6.000000e+001
      vertex  0.000000e+000 -2.050396e+001  4.117751e+001
      vertex  0.000000e+000 -2.772119e+001  3.670879e+001
    endloop
  endfacet
  facet normal -9.999999e-001  -0.000000e+000  0.000000e+000
    outer loop
      vertex  0.000000e+000 -6.000000e+001  6.000000e+001
      vertex  0.000000e+000 -2.772119e+001  3.670879e+001
      vertex  0.000000e+000 -3.399441e+001  3.099000e+001
    endloop
  endfacet
  facet normal -1.000000e+000  -0.000000e+000  0.000000e+000
    outer loop
      vertex  0.000000e+000 -6.000000e+001  6.000000e+001
      vertex  0.000000e+000 -3.399441e+001  3.099000e+001
      vertex  0.000000e+000 -3.910999e+001  2.421588e+001
    endloop
  endfacet
  facet normal -1.000000e+000  -0.000000e+000  0.000000e+000
    outer loop
      vertex  0.000000e+000 -6.000000e+001  6.000000e+001
      vertex  0.000000e+000 -3.910999e+001  2.421588e+001
      vertex  0.000000e+000 -4.289372e+001  1.661712e+001
    endloop
  endfacet
  facet normal -1.000000e+000  -0.000000e+000  0.000000e+000
    outer loop
      vertex  0.000000e+000 -6.000000e+001  6.000000e+001
      vertex  0.000000e+000 -4.289372e+001  1.661712e+001
      vertex  0.000000e+000 -4.521676e+001  8.452477e+000
    endloop
  endfacet
  facet normal -1.000000e+000  -0.000000e+000  0.000000e+000
    outer loop
      vertex  0.000000e+000 -6.000000e+001  6.000000e+001
      vertex  0.000000e+000 -4.521676e+001  8.452477e+000
      vertex  0.000000e+000 -6.000000e+001 -6.000000e+001
    endloop
  endfacet
  facet normal -1.000000e+000  0.000000e+000  0.000000e+000
    outer loop
      vertex  0.000000e+000 -6.000000e+001 -6.000000e+001
      vertex  0.000000e+000 -4.521676e+001  8.452477e+000
      vertex  0.000000e+000 -4.600000e+001  5.633189e-015
    endloop
  endfacet
  facet normal -1.000000e+000  0.000000e+000  -0.000000e+000
    outer loop
      vertex  0.000000e+000 -6.000000e+001 -6.000000e+001
      vertex  0.000000e+000 -4.600000e+001  5.633189e-015
      vertex  0.000000e+000 -4.521676e+001 -8.452477e+000
    endloop
  endfacet
  facet normal -1.000000e+000  0.000000e+000  -0.000000e+000
    outer loop
      vertex  0.000000e+000 -6.000000e+001 -6.000000e+001
      vertex  0.000000e+000 -4.521676e+001 -8.452477e+000
      vertex  0.000000e+000 -4.289372e+001 -1.661712e+001
    endloop
  endfacet
  facet normal -1.000000e+000  0.000000e+000  -0.000000e+000
    outer loop
      vertex  0.000000e+000 -6.000000e+001 -6.000000e+001
      vertex  0.000000e+000 -4.289372e+001 -1.661712e+001
      vertex  0.000000e+000 -3.910999e+001 -2.421588e+001
    endloop
  endfacet
  facet normal -1.000000e+000  0.000000e+000  -0.000000e+000
    outer loop
      vertex  0.000000e+000 -6.000000e+001 -6.000000e+001
      vertex  0.000000e+000 -3.910999e+001 -2.421588e+001
      vertex  0.000000e+000 -3.399441e+001 -3.099000e+001
    endloop
  endfacet
  facet normal -9.999999e-001  0.000000e+000  -0.000000e+000
    outer loop
      vertex  0.000000e+000 -6.000000e+001 -6.000000e+001
      vertex  0.000000e+000 -3.399441e+001 -3.099000e+001
      vertex  0.000000e+000 -2.772119e+001 -3.670879e+001
    endloop
  endfacet
  facet normal -1.000000e+000  0.000000e+000  -0.000000e+000
    outer loop
      vertex  0.000000e+000 -6.000000e+001 -6.000000e+001
      vertex  0.000000e+000 -2.772119e+001 -3.670879e+001
      vertex  0.000000e+000 -2.050396e+001 -4.117751e+001
    endloop
  endfacet
  facet normal -1.000000e+000  0.000000e+000  -0.000000e+000
    outer loop
      vertex  0.000000e+000 -6.000000e+001 -6.000000e+001
      vertex  0.000000e+000 -2.050396e+001 -4.117751e+001
      vertex  0.000000e+000 -1.258850e+001 -4.424398e+001
    endloop
  endfacet
  facet normal -9.999999e-001  0.000000e+000  -0.000000e+000
    outer loop
      vertex  0.000000e+000 -6.000000e+001 -6.000000e+001
      vertex  0.000000e+000 -1.258850e+001 -4.424398e+001
      vertex  0.000000e+000 -4.244345e+000 -4.580377e+001
    endloop
  endfacet
  facet normal -1.000000e+000  0.000000e+000  -0.000000e+000
    outer loop
      vertex  0.000000e+000 -6.000000e+001 -6.000000e+001
      vertex  0.000000e+000 -4.244345e+000 -4.580377e+001
      vertex  0.000000e+000  4.244345e+000 -4.580377e+001
    endloop
  endfacet
  facet normal -1.000000e+000  0.000000e+000  -0.000000e+000
    outer loop
      vertex  0.000000e+000 -6.000000e+001 -6.000000e+001
      vertex  0.000000e+000  4.244345e+000 -4.580377e+001
      vertex  0.000000e+000  6.000000e+001 -6.000000e+001
    endloop
  endfacet
  facet normal -1.000000e+000  0.000000e+000  0.000000e+000
    outer loop
      vertex  0.000000e+000  6.000000e+001 -6.000000e+001
      vertex  0.000000e+000  4.244345e+000 -4.580377e+001
      vertex  0.000000e+000  1.258850e+001 -4.424398e+001
    endloop
  endfacet
  facet normal -1.000000e+000  0.000000e+000  0.000000e+000
    outer loop
      vertex  0.000000e+000  6.000000e+001 -6.000000e+001
      vertex  0.000000e+000  1.258850e+001 -4.424398e+001
      vertex  0.000000e+000  2.050396e+001 -4.117751e+001
    endloop
  endfacet
  facet normal -1.000000e+000  0.000000e+000  0.000000e+000
    outer loop
      vertex  0.000000e+000  6.000000e+001 -6.000000e+001
      vertex  0.000000e+000  2.050396e+001 -4.117751e+001
      vertex  0.000000e+000  2.772119e+001 -3.670879e+001
    endloop
  endfacet
  facet normal -9.999999e-001  0.000000e+000  0.000000e+000
    outer loop
      vertex  0.000000e+000  6.000000e+001 -6.000000e+001
      vertex  0.000000e+000  2.772119e+001 -3.670879e+001
      vertex  0.000000e+000  3.399441e+001 -3.099000e+001
    endloop
  endfacet
  facet normal -1.000000e+000  0.000000e+000  0.000000e+000
    outer loop
      vertex  0.000000e+000  6.000000e+001 -6.000000e+001
      vertex  0.000000e+000  3.399441e+001 -3.099000e+001
      vertex  0.000000e+000  3.910999e+001 -2.421588e+001
    endloop
  endfacet
  facet normal -1.000000e+000  0.000000e+000  0.000000e+000
    outer loop
      vertex  0.000000e+000  6.000000e+001 -6.000000e+001
      vertex  0.000000e+000  3.910999e+001 -2.421588e+001
      vertex  0.000000e+000  4.289372e+001 -1.661712e+001
    endloop
  endfacet
  facet normal -1.000000e+000  0.000000e+000  0.000000e+000
    outer loop
      vertex  0.000000e+000  6.000000e+001 -6.000000e+001
      vertex  0.000000e+000  4.289372e+001 -1.661712e+001
      vertex  0.000000e+000  4.521676e+001 -8.452477e+000
    endloop
  endfacet
  facet normal -1.000000e+000  0.000000e+000  0.000000e+000
    outer loop
      vertex  0.000000e+000  6.000000e+001 -6.000000e+001
      vertex  0.000000e+000  4.521676e+001 -8.452477e+000
      vertex  0.000000e+000  4.600000e+001  0.000000e+000
    endloop
  endfacet
  facet normal -1.000000e+000  0.000000e+000  0.000000e+000
    outer loop
      vertex  0.000000e+000  6.000000e+001 -6.000000e+001
      vertex  0.000000e+000  4.600000e+001  0.000000e+000
      vertex  0.000000e+000  4.521676e+001  8.452477e+000
    endloop
  endfacet
  facet normal -1.000000e+000  0.000000e+000  0.000000e+000
    outer loop
      vertex  0.000000e+000  6.000000e+001  6.000000e+001
      vertex  0.000000e+000  6.000000e+001 -6.000000e+001
      vertex  0.000000e+000  4.521676e+001  8.452477e+000
    endloop
  endfacet
  facet normal -1.000000e+000  0.000000e+000  0.000000e+000
    outer loop
      vertex  0.000000e+000  6.000000e+001  6.000000e+001
      vertex  0.000000e+000  4.521676e+001  8.452477e+000
      vertex  0.000000e+000  4.289372e+001  1.661712e+001
    endloop
  endfacet
  facet normal -1.000000e+000  0.000000e+000  0.000000e+000
    outer loop
      vertex  0.000000e+000  6.000000e+001  6.000000e+001
      vertex  0.000000e+000  4.289372e+001  1.661712e+001
      vertex  0.000000e+000  3.910999e+001  2.421588e+001
    endloop
  endfacet
  facet normal -1.000000e+000  0.000000e+000  0.000000e+000
    outer loop
      vertex  0.000000e+000  6.000000e+001  6.000000e+001
      vertex  0.000000e+000  3.910999e+001  2.421588e+001
      vertex  0.000000e+000  3.399441e+001  3.099000e+001
    endloop
  endfacet
  facet normal -9.999999e-001  0.000000e+000  0.000000e+000
    outer loop
      vertex  0.000000e+000  6.000000e+001  6.000000e+001
      vertex  0.000000e+000  3.399441e+001  3.099000e+001
      vertex  0.000000e+000  2.772119e+001  3.670879e+001
    endloop
  endfacet
  facet normal -1.000000e+000  0.000000e+000  0.000000e+000
    outer loop
      vertex  0.000000e+000  6.000000e+001  6.000000e+001
      vertex  0.000000e+000  2.772119e+001  3.670879e+001
      vertex  0.000000e+000  2.050396e+001  4.117751e+001
    endloop
  endfacet
  facet normal -1.000000e+000  0.000000e+000  0.000000e+000
    outer loop
      vertex  0.000000e+000  6.000000e+001  6.000000e+001
      vertex  0.000000e+000  2.050396e+001  4.117751e+001
      vertex  0.000000e+000  1.258850e+001  4.424398e+001
    endloop
  endfacet
  facet normal -9.999999e-001  0.000000e+000  0.000000e+000
    outer loop
      vertex  0.000000e+000  6.000000e+001  6.000000e+001
      vertex  0.000000e+000  1.258850e+001  4.424398e+001
      vertex  0.000000e+000  4.244345e+000  4.580377e+001
    endloop
  endfacet
  facet normal  0.000000e+000  1.837494e-001 -9.829732e-001
    outer loop
      vertex  0.000000e+000 -4.244345e+000  4.580377e+001
      vertex  6.000000e+000 -1.258850e+001  4.424398e+001
      vertex  0.000000e+000 -1.258850e+001  4.424398e+001
    endloop
  endfacet
  facet normal  0.000000e+000  3.612416e-001 -9.324723e-001
    outer loop
      vertex  0.000000e+000 -1.258850e+001  4.424398e+001
      vertex  6.000000e+000 -1.258850e+001  4.424398e+001
      vertex  6.000000e+000 -2.050396e+001  4.117751e+001
    endloop
  endfacet
  facet normal  0.000000e+000  3.612416e-001 -9.324723e-001
    outer loop
      vertex  0.000000e+000 -1.258850e+001  4.424398e+001
      vertex  6.000000e+000 -2.050396e+001  4.117751e+001
      vertex  0.000000e+000 -2.050396e+001  4.117751e+001
    endloop
  endfacet
  facet normal  0.000000e+000  5.264322e-001 -8.502172e-001
    outer loop
      vertex  0.000000e+000 -2.050396e+001  4.117751e+001
      vertex  6.000000e+000 -2.050396e+001  4.117751e+001
      vertex  6.000000e+000 -2.772119e+001  3.670879e+001
    endloop
  endfacet
  facet normal  0.000000e+000  5.264322e-001 -8.502172e-001
    outer loop
      vertex  0.000000e+000 -2.050396e+001  4.117751e+001
      vertex  6.000000e+000 -2.772119e+001  3.670879e+001
      vertex  0.000000e+000 -2.772119e+001  3.670879e+001
    endloop
  endfacet
  facet normal  0.000000e+000  6.736956e-001 -7.390089e-001
    outer loop
      vertex  0.000000e+000 -2.772119e+001  3.670879e+001
      vertex  6.000000e+000 -2.772119e+001  3.670879e+001
      vertex  6.000000e+000 -3.399441e+001  3.099000e+001
    endloop
  endfacet
  facet normal  0.000000e+000  6.736956e-001 -7.390089e-001
    outer loop
      vertex  0.000000e+000 -2.772119e+001  3.670879e+001
      vertex  6.000000e+000 -3.399441e+001  3.099000e+001
      vertex  0.000000e+000 -3.399441e+001  3.099000e+001
    endloop
  endfacet
  facet normal  0.000000e+000  7.980173e-001 -6.026346e-001
    outer loop
      vertex  0.000000e+000 -3.399441e+001  3.099000e+001
      vertex  6.000000e+000 -3.399441e+001  3.099000e+001
      vertex  6.000000e+000 -3.910999e+001  2.421588e+001
    endloop
  endfacet
  facet normal  0.000000e+000  7.980173e-001 -6.026346e-001
    outer loop
      vertex  0.000000e+000 -3.399441e+001  3.099000e+001
      vertex  6.000000e+000 -3.910999e+001  2.421588e+001
      vertex  0.000000e+000 -3.910999e+001  2.421588e+001
    endloop
  endfacet
  facet normal  0.000000e+000  8.951634e-001 -4.457383e-001
    outer loop
      vertex  0.000000e+000 -3.910999e+001  2.421588e+001
      vertex  6.000000e+000 -3.910999e+001  2.421588e+001
      vertex  6.000000e+000 -4.289372e+001  1.661712e+001
    endloop
  endfacet
  facet normal  0.000000e+000  8.951634e-001 -4.457383e-001
    outer loop
      vertex  0.000000e+000 -3.910999e+001  2.421588e+001
      vertex  6.000000e+000 -4.289372e+001  1.661712e+001
      vertex  0.000000e+000 -4.289372e+001  1.661712e+001
    endloop
  endfacet
  facet normal  0.000000e+000  9.618256e-001 -2.736630e-001
    outer loop
      vertex  0.000000e+000 -4.289372e+001  1.661712e+001
      vertex  6.000000e+000 -4.289372e+001  1.661712e+001
      vertex  6.000000e+000 -4.521676e+001  8.452477e+000
    endloop
  endfacet
  facet normal  0.000000e+000  9.618256e-001 -2.736630e-001
    outer loop
      vertex  0.000000e+000 -4.289372e+001  1.661712e+001
      vertex  6.000000e+000 -4.521676e+001  8.452477e+000
      vertex  0.000000e+000 -4.521676e+001  8.452477e+000
    endloop
  endfacet
  facet normal  0.000000e+000  9.957342e-001 -9.226837e-002
    outer loop
      vertex  0.000000e+000 -4.521676e+001  8.452477e+000
      vertex  6.000000e+000 -4.521676e+001  8.452477e+000
      vertex  6.000000e+000 -4.600000e+001  5.633189e-015
    endloop
  endfacet
  facet normal  0.000000e+000  9.957342e-001 -9.226837e-002
    outer loop
      vertex  0.000000e+000 -4.521676e+001  8.452477e+000
      vertex  6.000000e+000 -4.600000e+001  5.633189e-015
      vertex  0.000000e+000 -4.600000e+001  5.633189e-015
    endloop
  endfacet
  facet normal  0.000000e+000  1.837494e-001 -9.829732e-001
    outer loop
      vertex  6.000000e+000 -1.258850e+001  4.424398e+001
      vertex  0.000000e+000 -4.244345e+000  4.580377e+001
      vertex  6.000000e+000 -4.244345e+000  4.580377e+001
    endloop
  endfacet
  facet normal  0.000000e+000  0.000000e+000 -1.000000e+000
    outer loop
      vertex  6.000000e+000 -4.244345e+000  4.580377e+001
      vertex  0.000000e+000 -4.244345e+000  4.580377e+001
      vertex  0.000000e+000  4.244345e+000  4.580377e+001
    endloop
  endfacet
  facet normal  0.000000e+000  0.000000e+000 -1.000000e+000
    outer loop
      vertex  6.000000e+000 -4.244345e+000  4.580377e+001
      vertex  0.000000e+000  4.244345e+000  4.580377e+001
      vertex  6.000000e+000  4.244345e+000  4.580377e+001
    endloop
  endfacet
  facet normal  -0.000000e+000 -1.837494e-001 -9.829732e-001
    outer loop
      vertex  6.000000e+000  4.244345e+000  4.580377e+001
      vertex  0.000000e+000  4.244345e+000  4.580377e+001
      vertex  0.000000e+000  1.258850e+001  4.424398e+001
    endloop
  endfacet
  facet normal  0.000000e+000 -1.837494e-001 -9.829732e-001
    outer loop
      vertex  6.000000e+000  4.244345e+000  4.580377e+001
      vertex  0.000000e+000  1.258850e+001  4.424398e+001
      vertex  6.000000e+000  1.258850e+001  4.424398e+001
    endloop
  endfacet
  facet normal  -0.000000e+000 -3.612416e-001 -9.324723e-001
    outer loop
      vertex  6.000000e+000  1.258850e+001  4.424398e+001
      vertex  0.000000e+000  1.258850e+001  4.424398e+001
      vertex  0.000000e+000  2.050396e+001  4.117751e+001
    endloop
  endfacet
  facet normal  0.000000e+000 -3.612416e-001 -9.324723e-001
    outer loop
      vertex  6.000000e+000  1.258850e+001  4.424398e+001
      vertex  0.000000e+000  2.050396e+001  4.117751e+001
      vertex  6.000000e+000  2.050396e+001  4.117751e+001
    endloop
  endfacet
  facet normal  -0.000000e+000 -5.264322e-001 -8.502172e-001
    outer loop
      vertex  6.000000e+000  2.050396e+001  4.117751e+001
      vertex  0.000000e+000  2.050396e+001  4.117751e+001
      vertex  0.000000e+000  2.772119e+001  3.670879e+001
    endloop
  endfacet
  facet normal  0.000000e+000 -5.264322e-001 -8.502172e-001
    outer loop
      vertex  6.000000e+000  2.050396e+001  4.117751e+001
      vertex  0.000000e+000  2.772119e+001  3.670879e+001
      vertex  6.000000e+000  2.772119e+001  3.670879e+001
    endloop
  endfacet
  facet normal  -0.000000e+000 -6.736956e-001 -7.390089e-001
    outer loop
      vertex  6.000000e+000  2.772119e+001  3.670879e+001
      vertex  0.000000e+000  2.772119e+001  3.670879e+001
      vertex  0.000000e+000  3.399441e+001  3.099000e+001
    endloop
  endfacet
  facet normal  0.000000e+000 -6.736956e-001 -7.390089e-001
    outer loop
      vertex  6.000000e+000  2.772119e+001  3.670879e+001
      vertex  0.000000e+000  3.399441e+001  3.099000e+001
      vertex  6.000000e+000  3.399441e+001  3.099000e+001
    endloop
  endfacet
  facet normal  -0.000000e+000 -7.980173e-001 -6.026346e-001
    outer loop
      vertex  6.000000e+000  3.399441e+001  3.099000e+001
      vertex  0.000000e+000  3.399441e+001  3.099000e+001
      vertex  0.000000e+000  3.910999e+001  2.421588e+001
    endloop
  endfacet
  facet normal  0.000000e+000 -7.980173e-001 -6.026346e-001
    outer loop
      vertex  6.000000e+000  3.399441e+001  3.099000e+001
      vertex  0.000000e+000  3.910999e+001  2.421588e+001
      vertex  6.000000e+000  3.910999e+001  2.421588e+001
    endloop
  endfacet
  facet normal  -0.000000e+000 -8.951634e-001 -4.457383e-001
    outer loop
      vertex  6.000000e+000  3.910999e+001  2.421588e+001
      vertex  0.000000e+000  3.910999e+001  2.421588e+001
      vertex  0.000000e+000  4.289372e+001  1.661712e+001
    endloop
  endfacet
  facet normal  0.000000e+000 -8.951634e-001 -4.457383e-001
    outer loop
      vertex  6.000000e+000  3.910999e+001  2.421588e+001
      vertex  0.000000e+000  4.289372e+001  1.661712e+001
      vertex  6.000000e+000  4.289372e+001  1.661712e+001
    endloop
  endfacet
  facet normal  -0.000000e+000 -9.618256e-001 -2.736630e-001
    outer loop
      vertex  6.000000e+000  4.289372e+001  1.661712e+001
      vertex  0.000000e+000  4.289372e+001  1.661712e+001
      vertex  0.000000e+000  4.521676e+001  8.452477e+000
    endloop
  endfacet
  facet normal  0.000000e+000 -9.618256e-001 -2.736630e-001
    outer loop
      vertex  6.000000e+000  4.289372e+001  1.661712e+001
      vertex  0.000000e+000  4.521676e+001  8.452477e+000
      vertex  6.000000e+000  4.521676e+001  8.452477e+000
    endloop
  endfacet
  facet normal  -0.000000e+000 -9.957342e-001 -9.226837e-002
    outer loop
      vertex  6.000000e+000  4.521676e+001  8.452477e+000
      vertex  0.000000e+000  4.521676e+001  8.452477e+000
      vertex  0.000000e+000  4.600000e+001  0.000000e+000
    endloop
  endfacet
  facet normal  0.000000e+000 -9.957342e-001 -9.226837e-002
    outer loop
      vertex  6.000000e+000  4.521676e+001  8.452477e+000
      vertex  0.000000e+000  4.600000e+001  0.000000e+000
      vertex  6.000000e+000  4.600000e+001  0.000000e+000
    endloop
  endfacet
  facet normal  0.000000e+000 -1.837494e-001  9.829732e-001
    outer loop
      vertex  0.000000e+000  4.244345e+000 -4.580377e+001
      vertex  6.000000e+000  1.258850e+001 -4.424398e+001
      vertex  0.000000e+000  1.258850e+001 -4.424398e+001
    endloop
  endfacet
  facet normal  0.000000e+000 -3.612416e-001  9.324723e-001
    outer loop
      vertex  0.000000e+000  1.258850e+001 -4.424398e+001
      vertex  6.000000e+000  1.258850e+001 -4.424398e+001
      vertex  6.000000e+000  2.050396e+001 -4.117751e+001
    endloop
  endfacet
  facet normal  0.000000e+000 -3.612416e-001  9.324723e-001
    outer loop
      vertex  0.000000e+000  1.258850e+001 -4.424398e+001
      vertex  6.000000e+000  2.050396e+001 -4.117751e+001
      vertex  0.000000e+000  2.050396e+001 -4.117751e+001
    endloop
  endfacet
  facet normal  0.000000e+000 -5.264322e-001  8.502172e-001
    outer loop
      vertex  0.000000e+000  2.050396e+001 -4.117751e+001
      vertex  6.000000e+000  2.050396e+001 -4.117751e+001
      vertex  6.000000e+000  2.772119e+001 -3.670879e+001
    endloop
  endfacet
  facet normal  0.000000e+000 -5.264322e-001  8.502172e-001
    outer loop
      vertex  0.000000e+000  2.050396e+001 -4.117751e+001
      vertex  6.000000e+000  2.772119e+001 -3.670879e+001
      vertex  0.000000e+000  2.772119e+001 -3.670879e+001
    endloop
  endfacet
  facet normal  0.000000e+000 -6.736956e-001  7.390089e-001
    outer loop
      vertex  0.000000e+000  2.772119e+001 -3.670879e+001
      vertex  6.000000e+000  2.772119e+001 -3.670879e+001
      vertex  6.000000e+000  3.399441e+001 -3.099000e+001
    endloop
  endfacet
  facet normal  0.000000e+000 -6.736956e-001  7.390089e-001
    outer loop
      vertex  0.000000e+000  2.772119e+001 -3.670879e+001
      vertex  6.000000e+000  3.399441e+001 -3.099000e+001
      vertex  0.000000e+000  3.399441e+001 -3.099000e+001
    endloop
  endfacet
  facet normal  0.000000e+000 -7.980173e-001  6.026346e-001
    outer loop
      vertex  0.000000e+000  3.399441e+001 -3.099000e+001
      vertex  6.000000e+000  3.399441e+001 -3.099000e+001
      vertex  6.000000e+000  3.910999e+001 -2.421588e+001
    endloop
  endfacet
  facet normal  0.000000e+000 -7.980173e-001  6.026346e-001
    outer loop
      vertex  0.000000e+000  3.399441e+001 -3.099000e+001
      vertex  6.000000e+000  3.910999e+001 -2.421588e+001
      vertex  0.000000e+000  3.910999e+001 -2.421588e+001
    endloop
  endfacet
  facet normal  0.000000e+000 -8.951634e-001  4.457383e-001
    outer loop
      vertex  0.000000e+000  3.910999e+001 -2.421588e+001
      vertex  6.000000e+000  3.910999e+001 -2.421588e+001
      vertex  6.000000e+000  4.289372e+001 -1.661712e+001
    endloop
  endfacet
  facet normal  0.000000e+000 -8.951634e-001  4.457383e-001
    outer loop
      vertex  0.000000e+000  3.910999e+001 -2.421588e+001
      vertex  6.000000e+000  4.289372e+001 -1.661712e+001
      vertex  0.000000e+000  4.289372e+001 -1.661712e+001
    endloop
  endfacet
  facet normal  0.000000e+000 -9.618256e-001  2.736630e-001
    outer loop
      vertex  0.000000e+000  4.289372e+001 -1.661712e+001
      vertex  6.000000e+000  4.289372e+001 -1.661712e+001
      vertex  6.000000e+000  4.521676e+001 -8.452477e+000
    endloop
  endfacet
  facet normal  0.000000e+000 -9.618256e-001  2.736630e-001
    outer loop
      vertex  0.000000e+000  4.289372e+001 -1.661712e+001
      vertex  6.000000e+000  4.521676e+001 -8.452477e+000
      vertex  0.000000e+000  4.521676e+001 -8.452477e+000
    endloop
  endfacet
  facet normal  0.000000e+000 -9.957342e-001  9.226837e-002
    outer loop
      vertex  0.000000e+000  4.521676e+001 -8.452477e+000
      vertex  6.000000e+000  4.521676e+001 -8.452477e+000
      vertex  6.000000e+000  4.600000e+001  0.000000e+000
    endloop
  endfacet
  facet normal  0.000000e+000 -9.957342e-001  9.226837e-002
    outer loop
      vertex  0.000000e+000  4.521676e+001 -8.452477e+000
      vertex  6.000000e+000  4.600000e+001  0.000000e+000
      vertex  0.000000e+000  4.600000e+001  0.000000e+000
    endloop
  endfacet
  facet normal  0.000000e+000 -1.837494e-001  9.829732e-001
    outer loop
      vertex  6.000000e+000  1.258850e+001 -4.424398e+001
      vertex  0.000000e+000  4.244345e+000 -4.580377e+001
      vertex  6.000000e+000  4.244345e+000 -4.580377e+001
    endloop
  endfacet
  facet normal  0.000000e+000  0.000000e+000  1.000000e+000
    outer loop
      vertex  6.000000e+000  4.244345e+000 -4.580377e+001
      vertex  0.000000e+000  4.244345e+000 -4.580377e+001
      vertex  0.000000e+000 -4.244345e+000 -4.580377e+001
    endloop
  endfacet
  facet normal  0.000000e+000  0.000000e+000  1.000000e+000
    outer loop
      vertex  6.000000e+000  4.244345e+000 -4.580377e+001
      vertex  0.000000e+000 -4.244345e+000 -4.580377e+001
      vertex  6.000000e+000 -4.244345e+000 -4.580377e+001
    endloop
  endfacet
  facet normal  0.000000e+000  1.837494e-001  9.829732e-001
    outer loop
      vertex  6.000000e+000 -4.244345e+000 -4.580377e+001
      vertex  0.000000e+000 -4.244345e+000 -4.580377e+001
      vertex  0.000000e+000 -1.258850e+001 -4.424398e+001
    endloop
  endfacet
  facet normal  -0.000000e+000  1.837494e-001  9.829732e-001
    outer loop
      vertex  6.000000e+000 -4.244345e+000 -4.580377e+001
      vertex  0.000000e+000 -1.258850e+001 -4.424398e+001
      vertex  6.000000e+000 -1.258850e+001 -4.424398e+001
    endloop
  endfacet
  facet normal  0.000000e+000  3.612416e-001  9.324723e-001
    outer loop
      vertex  6.000000e+000 -1.258850e+001 -4.424398e+001
      vertex  0.000000e+000 -1.258850e+001 -4.424398e+001
      vertex  0.000000e+000 -2.050396e+001 -4.117751e+001
    endloop
  endfacet
  facet normal  -0.000000e+000  3.612416e-001  9.324723e-001
    outer loop
      vertex  6.000000e+000 -1.258850e+001 -4.424398e+001
      vertex  0.000000e+000 -2.050396e+001 -4.117751e+001
      vertex  6.000000e+000 -2.050396e+001 -4.117751e+001
    endloop
  endfacet
  facet normal  0.000000e+000  5.264322e-001  8.502172e-001
    outer loop
      vertex  6.000000e+000 -2.050396e+001 -4.117751e+001
      vertex  0.000000e+000 -2.050396e+001 -4.117751e+001
      vertex  0.000000e+000 -2.772119e+001 -3.670879e+001
    endloop
  endfacet
  facet normal  -0.000000e+000  5.264322e-001  8.502172e-001
    outer loop
      vertex  6.000000e+000 -2.050396e+001 -4.117751e+001
      vertex  0.000000e+000 -2.772119e+001 -3.670879e+001
      vertex  6.000000e+000 -2.772119e+001 -3.670879e+001
    endloop
  endfacet
  facet normal  0.000000e+000  6.736956e-001  7.390089e-001
    outer loop
      vertex  6.000000e+000 -2.772119e+001 -3.670879e+001
      vertex  0.000000e+000 -2.772119e+001 -3.670879e+001
      vertex  0.000000e+000 -3.399441e+001 -3.099000e+001
    endloop
  endfacet
  facet normal  -0.000000e+000  6.736956e-001  7.390089e-001
    outer loop
      vertex  6.000000e+000 -2.772119e+001 -3.670879e+001
      vertex  0.000000e+000 -3.399441e+001 -3.099000e+001
      vertex  6.000000e+000 -3.399441e+001 -3.099000e+001
    endloop
  endfacet
  facet normal  0.000000e+000  7.980173e-001  6.026346e-001
    outer loop
      vertex  6.000000e+000 -3.399441e+001 -3.099000e+001
      vertex  0.000000e+000 -3.399441e+001 -3.099000e+001
      vertex  0.000000e+000 -3.910999e+001 -2.421588e+001
    endloop
  endfacet
  facet normal  -0.000000e+000  7.980173e-001  6.026346e-001
    outer loop
      vertex  6.000000e+000 -3.399441e+001 -3.099000e+001
      vertex  0.000000e+000 -3.910999e+001 -2.421588e+001
      vertex  6.000000e+000 -3.910999e+001 -2.421588e+001
    endloop
  endfacet
  facet normal  0.000000e+000  8.951634e-001  4.457383e-001
    outer loop
      vertex  6.000000e+000 -3.910999e+001 -2.421588e+001
      vertex  0.000000e+000 -3.910999e+001 -2.421588e+001
      vertex  0.000000e+000 -4.289372e+001 -1.661712e+001
    endloop
  endfacet
  facet normal  -0.000000e+000  8.951634e-001  4.457383e-001
    outer loop
      vertex  6.000000e+000 -3.910999e+001 -2.421588e+001
      vertex  0.000000e+000 -4.289372e+001 -1.661712e+001
      vertex  6.000000e+000 -4.289372e+001 -1.661712e+001
    endloop
  endfacet
  facet normal  0.000000e+000  9.618256e-001  2.736630e-001
    outer loop
      vertex  6.000000e+000 -4.289372e+001 -1.661712e+001
      vertex  0.000000e+000 -4.289372e+001 -1.661712e+001
      vertex  0.000000e+000 -4.521676e+001 -8.452477e+000
    endloop
  endfacet
  facet normal  -0.000000e+000  9.618256e-001  2.736630e-001
    outer loop
      vertex  6.000000e+000 -4.289372e+001 -1.661712e+001
      vertex  0.000000e+000 -4.521676e+001 -8.452477e+000
      vertex  6.000000e+000 -4.521676e+001 -8.452477e+000
    endloop
  endfacet
  facet normal  0.000000e+000  9.957342e-001  9.226837e-002
    outer loop
      vertex  6.000000e+000 -4.521676e+001 -8.452477e+000
      vertex  0.000000e+000 -4.521676e+001 -8.452477e+000
      vertex  0.000000e+000 -4.600000e+001  5.633189e-015
    endloop
  endfacet
  facet normal  -0.000000e+000  9.957342e-001  9.226837e-002
    outer loop
      vertex  6.000000e+000 -4.521676e+001 -8.452477e+000
      vertex  0.000000e+000 -4.600000e+001  5.633189e-015
      vertex  6.000000e+000 -4.600000e+001  5.633189e-015
    endloop
  endfacet
endsolid CATIA STL
